<?xml version="1.0" encoding="UTF-8"?>
<svg version="1.1" xmlns="http://www.w3.org/2000/svg" width="1280" height="374">
<path d="M0 0 C0.97175171 -0.00137466 1.94350342 -0.00274933 2.94470215 -0.00416565 C4.00925125 -0.00057037 5.07380035 0.0030249 6.17060852 0.00672913 C7.29270721 0.0065831 8.41480591 0.00643707 9.57090759 0.00628662 C13.2881614 0.00698454 17.0053654 0.01477134 20.72261047 0.02259827 C23.29665093 0.02446287 25.87069173 0.02588658 28.44473267 0.02688599 C34.532647 0.03031694 40.62054072 0.03820233 46.70844728 0.04823548 C53.63945866 0.0594103 60.5704709 0.06491052 67.50148904 0.06993091 C81.75879958 0.0803853 96.01609501 0.09797622 110.27339172 0.12025452 C109.07212319 3.32309702 107.77204652 6.11303521 105.84443665 8.93690491 C105.11252609 10.0171418 105.11252609 10.0171418 104.36582947 11.11920166 C103.8338797 11.89427567 103.30192993 12.66934967 102.75386047 13.46791077 C102.19161774 14.29595718 101.629375 15.1240036 101.0500946 15.97714233 C99.83030578 17.77319585 98.60852748 19.56789945 97.38499451 21.36140442 C94.0892409 26.19403334 90.80996208 31.03780335 87.53120422 35.88197327 C86.85153091 36.88577026 86.1718576 37.88956726 85.47158813 38.92378235 C76.98430382 51.47775109 68.66494479 64.14190123 60.34638977 76.80799866 C59.21922935 78.52408731 58.0920325 80.24015204 56.96479797 81.95619202 C56.41274185 82.79681686 55.86068573 83.63744171 55.29190063 84.50354004 C51.3329971 90.52549082 47.34298875 96.52610974 43.33979797 102.51869202 C38.52519061 109.72611071 33.74113035 116.95267749 28.98432922 124.19837952 C28.37997543 125.11837738 27.77562164 126.03837524 27.1529541 126.98625183 C24.70019133 130.72056461 22.24781913 134.45512234 19.79975891 138.19252014 C13.52295631 147.77202956 7.21888089 157.33164476 0.68354797 166.73744202 C0.20795441 167.43210571 -0.26763916 168.12676941 -0.75764465 168.84248352 C-6.64481059 177.21900378 -13.62952086 180.32641755 -23.47377014 182.50712585 C-33.0262145 184.11555402 -42.97285025 183.47963508 -52.62113953 183.41322327 C-55.02394342 183.40761911 -57.42675076 183.40335289 -59.82955933 183.40036011 C-66.1144529 183.38897592 -72.39913424 183.35956466 -78.6839447 183.32624817 C-85.11285024 183.29540799 -91.5417905 183.2818251 -97.9707489 183.26673889 C-110.55612523 183.23468831 -123.14135539 183.1841578 -135.72660828 183.12025452 C-134.22998121 178.3524817 -132.25841678 174.57427561 -129.41410828 170.49525452 C-128.50661286 169.16407144 -127.6004302 167.83199276 -126.69535828 166.49916077 C-126.2132489 165.79162659 -125.73113953 165.08409241 -125.23442078 164.3551178 C-122.57593689 160.41474192 -119.99766778 156.42249135 -117.41410828 152.43275452 C-116.30603861 150.72441908 -115.19796566 149.01608577 -114.08988953 147.30775452 C-113.53510925 146.45181702 -112.98032898 145.59587952 -112.40873718 144.71400452 C-110.1900797 141.29295704 -107.96678754 137.87493406 -105.74345398 134.45692444 C-101.2293006 127.51687511 -96.72181063 120.57259406 -92.22660828 113.62025452 C-85.52395253 103.25383828 -78.79114182 92.90704905 -72.06059265 82.55873108 C-66.44094251 73.91794118 -60.82336046 65.2758984 -55.22660828 56.62025452 C-44.6192664 40.22109047 -44.6192664 40.22109047 -39.86723328 32.94447327 C-37.87746843 29.89741864 -35.90895193 26.83870292 -33.96098328 23.76478577 C-26.13284233 11.5161518 -15.82217991 -0.01725429 0 0 Z " fill="#FEFEFE" transform="translate(135.7266082763672,136.87974548339844)"/>
<path d="M0 0 C1.00678299 -0.00137466 2.01356598 -0.00274933 3.05085754 -0.00416565 C4.69839272 0.00122726 4.69839272 0.00122726 6.37921143 0.00672913 C8.12109993 0.00651009 8.12109993 0.00651009 9.8981781 0.00628662 C13.73985659 0.00698377 17.58148671 0.01476698 21.42315674 0.02259827 C24.08545005 0.02446315 26.74774068 0.02593591 29.41003418 0.02688599 C35.7033267 0.02999311 41.99660184 0.03819817 48.28988671 0.04823548 C55.45549973 0.05941582 62.62111358 0.06491191 69.78673315 0.06993091 C84.5249249 0.08038129 99.26310302 0.09796876 114.00128174 0.12025452 C109.7159142 6.88331843 105.39453874 13.61941954 100.99346924 20.30775452 C100.43798401 21.15301193 99.88249878 21.99826935 99.31018066 22.86914062 C92.90740559 32.6049558 86.4772733 42.32267551 80.04205322 52.0370636 C78.00045479 55.12150386 75.96246165 58.20830094 73.92510986 61.29554749 C70.63588673 66.27694899 67.33267472 71.24880887 64.01940918 76.21424866 C62.764799 78.098692 61.5145358 79.98603722 60.26879883 81.87635803 C58.52747558 84.51660104 56.7703878 87.1456499 55.00909424 89.77259827 C54.24982635 90.93528481 54.24982635 90.93528481 53.47521973 92.12145996 C48.99705001 98.73598768 43.95593289 103.13159173 36.00128174 105.12025452 C29.95566267 106.20974531 24.05823356 106.25535221 17.925354 106.23377991 C16.28522087 106.23399895 16.28522087 106.23399895 14.61195374 106.23422241 C11.01384466 106.23352822 7.41578797 106.22575895 3.81768799 106.21791077 C1.31662525 106.21604483 -1.18443786 106.21462176 -3.6855011 106.21362305 C-9.58557715 106.21020081 -15.48563399 106.20232697 -21.38570219 106.19227356 C-28.76646985 106.17997178 -36.14723985 106.17462262 -43.52801514 106.16908264 C-56.68492564 106.15836967 -69.84182077 106.14150306 -82.99871826 106.12025452 C-81.73619418 102.88654048 -80.44067985 100.03189986 -78.52215576 97.13587952 C-78.0244165 96.3783136 -77.52667725 95.62074768 -77.01385498 94.84022522 C-76.2019873 93.61758972 -76.2019873 93.61758972 -75.37371826 92.37025452 C-74.19572606 90.57788277 -73.01868741 88.78488405 -71.84246826 86.99134827 C-71.21856201 86.04114807 -70.59465576 85.09094788 -69.95184326 84.11195374 C-66.55533369 78.90935021 -63.21643285 73.67001884 -59.87371826 68.43275452 C-55.01564706 60.8289166 -50.15188476 53.22944717 -45.22747803 45.66835022 C-42.46333074 41.41530109 -39.74615335 37.13521637 -37.04949951 32.83900452 C-36.34953857 31.72976624 -35.64957764 30.62052795 -34.92840576 29.47767639 C-33.5557561 27.30093768 -32.18946281 25.12017252 -30.83074951 22.93470764 C-24.68434452 13.21322636 -18.67595871 3.98245136 -7.19492722 0.5867548 C-4.73626341 0.06450606 -2.51380861 -0.0026517 0 0 Z " fill="#FEFEFE" transform="translate(297.99871826171875,136.87974548339844)"/>
<path d="M0 0 C15.32562559 -0.09368781 30.65123793 -0.16409848 45.97708607 -0.20724869 C53.0941154 -0.22782196 60.21096618 -0.25584144 67.32788086 -0.30175781 C73.53529017 -0.34178701 79.74257009 -0.36747081 85.95010489 -0.37635398 C89.23313858 -0.38154181 92.51571872 -0.39576351 95.79865456 -0.42292023 C99.47512035 -0.45211262 103.15082885 -0.45594923 106.82739258 -0.45410156 C107.90058243 -0.46848267 108.97377228 -0.48286377 110.07948303 -0.49768066 C118.71129734 -0.45098337 126.08411856 1.41083572 133.33203125 6.203125 C136.7221092 9.75699881 139.1666087 13.55218268 141.6875 17.75 C142.74779468 19.47191068 143.80901004 21.19325473 144.87109375 22.9140625 C145.66169189 24.20425293 145.66169189 24.20425293 146.46826172 25.52050781 C148.67420632 29.09136745 150.95694026 32.60969412 153.25 36.125 C157.86602167 43.22919279 162.43720189 50.36152343 167 57.5 C171.58852261 64.67685113 176.18191783 71.85019798 180.8125 79 C181.23893799 79.65871094 181.66537598 80.31742187 182.10473633 80.99609375 C184.43641834 84.59494583 186.77491356 88.18928283 189.1171875 91.78125 C189.63047607 92.57015625 190.14376465 93.3590625 190.67260742 94.171875 C191.66302227 95.69396944 192.65529644 97.21485608 193.6496582 98.734375 C197 103.88742318 197 103.88742318 197 105 C182.71750965 105.17785151 168.43492104 105.34332551 154.15212536 105.49477577 C147.51938665 105.5654641 140.88674001 105.64003992 134.25415039 105.72363281 C127.84812899 105.80422495 121.44206877 105.87443187 115.03585243 105.93757248 C112.59711863 105.96340845 110.15842085 105.99292674 107.71977806 106.02626419 C104.29262035 106.07247344 100.86556601 106.10534595 97.43823242 106.13525391 C96.43984848 106.1517952 95.44146454 106.16833649 94.41282654 106.18537903 C84.50450023 106.24451862 74.83959622 105.59800354 67 99 C61.95158848 93.85633974 57.88723874 88.14369125 53.9921875 82.10546875 C53.15861977 80.83114738 53.15861977 80.83114738 52.30821228 79.53108215 C51.11327792 77.70346807 49.92098271 75.87412617 48.73110962 74.04321289 C45.54340092 69.1387715 42.33606393 64.24720582 39.12890625 59.35546875 C38.46716904 58.34539764 37.80543182 57.33532654 37.12364197 56.29464722 C28.55714269 43.24229233 19.78801823 30.32636722 11.01708984 17.41088867 C10.42545547 16.53784592 9.83382111 15.66480316 9.22425842 14.76530457 C8.1208316 13.13721148 7.01536274 11.51049973 5.90745544 9.88545227 C5.41955032 9.16528427 4.9316452 8.44511627 4.42895508 7.703125 C4.00568436 7.08083008 3.58241364 6.45853516 3.14631653 5.81738281 C1.95721541 3.93216885 0.98354401 1.99855695 0 0 Z " fill="#FEFEFE" transform="translate(215,0)"/>
<path d="M0 0 C7.92 0 15.84 0 24 0 C31.43617287 21.87299438 38.34388411 43.87786612 45 66 C46.564469 63.04537699 47.70400233 60.10802282 48.73999023 56.93115234 C49.2357682 55.41840225 49.2357682 55.41840225 49.74156189 53.87509155 C50.0936824 52.78967072 50.44580292 51.70424988 50.80859375 50.5859375 C51.1759816 49.46111969 51.54336945 48.33630188 51.92189026 47.17739868 C52.69915123 44.79566511 53.47490538 42.41343934 54.24926758 40.03076172 C55.42653336 36.40874039 56.6083508 32.78823033 57.79101562 29.16796875 C58.54714502 26.84904636 59.30301271 24.53003862 60.05859375 22.2109375 C60.40869003 21.13766205 60.75878632 20.0643866 61.11949158 18.95858765 C61.61999779 17.41746811 61.61999779 17.41746811 62.13061523 15.84521484 C62.41992416 14.95571136 62.70923309 14.06620789 63.00730896 13.14974976 C64.38426499 8.78075001 65.68370307 4.38765645 67 0 C74.92 0 82.84 0 91 0 C93.25005777 10.12525997 93.25005777 10.12525997 93.77200317 13.63070679 C93.89255066 14.42967377 94.01309814 15.22864075 94.13729858 16.05181885 C94.26101837 16.89371765 94.38473816 17.73561646 94.51220703 18.60302734 C94.64904907 19.51635834 94.78589111 20.42968933 94.92687988 21.37069702 C95.373697 24.35864716 95.81588021 27.3472613 96.2578125 30.3359375 C96.56861854 32.42342332 96.87964699 34.51087603 97.19088745 36.59829712 C97.84006765 40.95699624 98.48703174 45.31601662 99.13232422 49.67529297 C99.96031115 55.26798316 100.79313295 60.85994029 101.62750435 66.45168114 C102.26912736 70.75444027 102.90857922 75.0575198 103.54732895 79.36070633 C103.85375245 81.42371965 104.16076983 83.48664486 104.4683876 85.54948044 C104.89660816 88.42378567 105.32199522 91.29849591 105.74658203 94.17333984 C105.93823441 95.45440613 105.93823441 95.45440613 106.13375854 96.76135254 C106.5902999 99.86851459 107 102.85470669 107 106 C99.74 106 92.48 106 85 106 C78.39879234 53.76714325 78.39879234 53.76714325 76 31 C75.66911377 32.12325684 75.33822754 33.24651367 74.99731445 34.40380859 C70.96460159 48.01061717 66.68388199 61.53293837 62.33911133 75.04296875 C61.16935581 78.68143664 60.00345656 82.32112559 58.83789062 85.9609375 C58.09397495 88.27871804 57.34984274 90.59642911 56.60546875 92.9140625 C56.25759811 94.00030914 55.90972748 95.08655579 55.55131531 96.20571899 C55.23040421 97.20211395 54.9094931 98.19850891 54.57885742 99.22509766 C54.29717209 100.10187164 54.01548676 100.97864563 53.7252655 101.88198853 C53 104 53 104 52 106 C47.71 106 43.42 106 39 106 C32.69443263 87.40712871 26.52681901 68.78419878 20.8125 50 C20.57493988 49.21983521 20.33737976 48.43967041 20.09262085 47.63586426 C15.94547344 33.99407922 15.94547344 33.99407922 15 30 C14.89977539 30.94278809 14.79955078 31.88557617 14.69628906 32.85693359 C12.80921061 50.57985946 10.88403355 68.29758304 8.8125 86 C8.68603088 87.08942902 8.68603088 87.08942902 8.55700684 88.2008667 C8.31762243 90.25918589 8.0753466 92.31714222 7.83203125 94.375 C7.69514893 95.53773438 7.5582666 96.70046875 7.41723633 97.8984375 C7.0517257 100.61549251 6.53765824 103.3117088 6 106 C-1.26 106 -8.52 106 -16 106 C-13.85304573 90.91093703 -11.69837923 75.82299789 -9.53552246 60.73620605 C-9.17440561 58.21678422 -8.81348877 55.6973337 -8.45275879 53.17785645 C-7.35851488 45.53601231 -6.26047018 37.89473115 -5.15722656 30.25418091 C-4.80216434 27.79136429 -4.44832479 25.32837109 -4.09570312 22.86520386 C-3.60093468 19.41095581 -3.10180083 15.95736578 -2.6015625 12.50390625 C-2.45393463 11.46658356 -2.30630676 10.42926086 -2.15420532 9.36050415 C-2.01646698 8.41597382 -1.87872864 7.47144348 -1.73681641 6.49829102 C-1.61803131 5.67345718 -1.49924622 4.84862335 -1.37686157 3.99879456 C-1 2 -1 2 0 0 Z " fill="#FEFEFE" transform="translate(904,137)"/>
<path d="M0 0 C4.00543235 -0.24315833 8.00895489 -0.38960862 12.01953125 -0.51953125 C13.14750122 -0.58918091 14.27547119 -0.65883057 15.43762207 -0.73059082 C23.71821929 -0.9316716 23.71821929 -0.9316716 27.46041584 1.78837109 C30.80368539 5.36925347 33.57252872 9.25942877 35.88671875 13.58203125 C38.87377423 18.88867022 42.31906581 23.6585068 46 28.5 C47.16007486 30.07105697 48.31762177 31.64398366 49.47265625 33.21875 C51.88739911 36.49691363 54.31328198 39.7664759 56.74609375 43.03125 C71.29788495 62.59576991 71.29788495 62.59576991 75 70 C75.33 46.9 75.66 23.8 76 0 C83.26 0 90.52 0 98 0 C98 34.98 98 69.96 98 106 C90.41 106 82.82 106 75 106 C66.55220935 96.71441193 66.55220935 96.71441193 64.17578125 92.41015625 C61.16380166 87.18970198 57.75550858 82.42842649 54.125 77.625 C52.96791078 76.051398 51.81167221 74.47717017 50.65625 72.90234375 C48.09484315 69.44346366 45.4848447 66.0273019 42.84375 62.62890625 C42.1410498 61.72124512 41.43834961 60.81358398 40.71435547 59.87841797 C39.37740304 58.15653322 38.03332418 56.44014347 36.68017578 54.73095703 C31.23776457 47.71470112 27.53815951 40.94177914 23 33 C22.67 57.09 22.34 81.18 22 106 C15.07 106 8.14 106 1 106 C0 105 0 105 -0.12304783 103.23712826 C-0.12212604 102.46374394 -0.12120424 101.69035963 -0.12025452 100.89353943 C-0.12162918 100.00867859 -0.12300385 99.12381775 -0.12442017 98.21214294 C-0.12082489 97.23391068 -0.11722961 96.25567841 -0.11352539 95.24780273 C-0.11367142 94.2235318 -0.11381744 93.19926086 -0.1139679 92.14395142 C-0.11326828 88.74047771 -0.10547363 85.33705796 -0.09765625 81.93359375 C-0.09579224 79.58089732 -0.09436826 77.2282005 -0.09336853 74.87550354 C-0.08954199 68.66943295 -0.07971055 62.4633856 -0.06866455 56.25732422 C-0.05845334 49.93001622 -0.05387154 43.60270448 -0.04882812 37.27539062 C-0.0380884 24.85025018 -0.02101036 12.42512702 0 0 Z M76 73 C77 75 77 75 77 75 Z " fill="#FEFEFE" transform="translate(1069,137)"/>
<path d="M0 0 C54.2358871 0 54.2358871 0 63.4140625 9.00390625 C69.15690468 16.23196624 70.77300182 24.98164548 70 34 C68.43819197 42.55023716 64.82863535 48.96899702 58 54.375 C55.04348062 55.976448 52.19418117 56.97963657 49 58 C53.09050163 66.51591486 57.63681788 74.62953858 62.5625 82.6875 C75 103.13559322 75 103.13559322 75 106 C66.42 106 57.84 106 49 106 C47.42412109 103.13828125 47.42412109 103.13828125 45.81640625 100.21875 C44.76392166 98.30866364 43.71119492 96.39871092 42.65844727 94.48876953 C41.94367783 93.19170741 41.22914817 91.89451312 40.51489258 90.59716797 C35.06528763 80.69929891 29.53975296 70.8484497 24 61 C23.67 75.85 23.34 90.7 23 106 C15.41 106 7.82 106 0 106 C0 71.02 0 36.04 0 0 Z M23 18 C23 26.58 23 35.16 23 44 C34.00192794 44.66922676 34.00192794 44.66922676 44 41 C47.61182078 37.10506738 47.5646744 33.82686947 47.4140625 28.69921875 C46.74713967 24.3516369 45.35029345 22.84046618 42 20 C34.99861207 17.31483984 34.99861207 17.31483984 23 18 Z " fill="#FEFEFE" transform="translate(639,137)"/>
<path d="M0 0 C8.58 0 17.16 0 26 0 C28.376282 5.34663449 30.65071512 10.52610778 32.69799805 15.97485352 C32.93771835 16.6106131 33.17743866 17.24637268 33.42442322 17.90139771 C34.2060655 19.97628703 34.983923 22.05257231 35.76171875 24.12890625 C36.31713681 25.60563185 36.87279059 27.08226881 37.42866516 28.55882263 C38.8890468 32.43993564 40.34620375 36.32225151 41.80267334 40.20483398 C43.25384094 44.07154449 44.7080842 47.93709772 46.16210938 51.80273438 C47.85962746 56.31576121 49.55616676 60.82914396 51.24777222 65.34439087 C53.75874173 72.04555256 56.27848984 78.74264116 58.83837891 85.42529297 C59.47632133 87.09905251 59.47632133 87.09905251 60.12715149 88.80662537 C60.90525598 90.84618483 61.68841894 92.88382494 62.47770691 94.91908264 C62.98337944 96.24872292 62.98337944 96.24872292 63.49926758 97.60522461 C63.79158768 98.3641954 64.08390778 99.1231662 64.38508606 99.90513611 C65 102 65 102 65 106 C56.75 106 48.5 106 40 106 C32 86.97297297 32 86.97297297 32 83 C19.13 83.33 6.26 83.66 -7 84 C-9.31 91.26 -11.62 98.52 -14 106 C-22.25 106 -30.5 106 -39 106 C-35.62513062 94.7504354 -35.62513062 94.7504354 -34.16918945 90.86547852 C-33.84011093 89.98248077 -33.51103241 89.09948303 -33.17198181 88.18972778 C-32.64792503 86.79837112 -32.64792503 86.79837112 -32.11328125 85.37890625 C-31.73873306 84.37640839 -31.36418488 83.37391052 -30.97828674 82.34103394 C-29.75934149 79.08039727 -28.53595725 75.82144603 -27.3125 72.5625 C-26.4653291 70.29903241 -25.61849044 68.03544045 -24.77197266 65.77172852 C-23.47378936 62.3005213 -22.17530481 58.82942929 -20.87554932 55.35881042 C-17.97983238 47.62623913 -15.09626604 39.8892502 -12.22265625 32.1484375 C-11.85096817 31.14749557 -11.47928009 30.14655365 -11.09632874 29.11528015 C-9.67342969 25.28306747 -8.25072954 21.450782 -6.82949829 17.61795044 C-5.8639033 15.0144557 -4.89694343 12.41147177 -3.9296875 9.80859375 C-3.64517227 9.04022186 -3.36065704 8.27184998 -3.06752014 7.48019409 C-1.11378844 2.22757687 -1.11378844 2.22757687 0 0 Z M12 20 C11.81566406 20.90234375 11.63132812 21.8046875 11.44140625 22.734375 C8.33963279 37.13679433 3.62031234 51.03046589 -1 65 C7.91 65 16.82 65 26 65 C23.53912983 55.94359201 23.53912983 55.94359201 20.7734375 47.01171875 C20.3815625 45.81095703 19.9896875 44.61019531 19.5859375 43.37304688 C18.77209252 40.8960703 17.95696803 38.41951379 17.140625 35.94335938 C16.55667969 34.15188477 16.55667969 34.15188477 15.9609375 32.32421875 C15.60821777 31.25260498 15.25549805 30.18099121 14.89208984 29.0769043 C14.0168679 26.05817902 13.45035598 23.10792235 13 20 C12.67 20 12.34 20 12 20 Z " fill="#FEFEFE" transform="translate(1215,137)"/>
<path d="M0 0 C8.58 0 17.16 0 26 0 C31.62467915 13.49922996 31.62467915 13.49922996 33.82739258 19.36303711 C34.0688652 20.00405365 34.31033783 20.64507019 34.55912781 21.30551147 C35.33957383 23.3787179 36.1170662 25.45301784 36.89453125 27.52734375 C37.45094828 29.00695625 38.00756797 30.48649255 38.56437683 31.96595764 C40.02130169 35.83851269 41.47577942 39.71198194 42.92962646 43.58569336 C44.67146431 48.22561703 46.41571345 52.86463467 48.16027641 57.50353432 C49.56478253 61.23825054 50.96833567 64.9733169 52.36941528 68.70932007 C54.75315665 75.06134305 57.14758702 81.40769281 59.60693359 87.73095703 C59.98758469 88.71286514 60.36823578 89.69477325 60.76042175 90.70643616 C61.44340671 92.46235711 62.13183755 94.21617502 62.82710266 95.9672699 C64.22480136 99.56355522 65 102.0915877 65 106 C56.75 106 48.5 106 40 106 C32 86.97297297 32 86.97297297 32 83 C19.13 83.33 6.26 83.66 -7 84 C-9.31 91.26 -11.62 98.52 -14 106 C-22.25 106 -30.5 106 -39 106 C-37.02373673 99.41245577 -34.98794149 93.00055921 -32.5859375 86.578125 C-32.25865158 85.69512726 -31.93136566 84.81212952 -31.59416199 83.90237427 C-30.52402637 81.01715629 -29.44957819 78.13356599 -28.375 75.25 C-27.62461882 73.23009182 -26.87454248 71.21007036 -26.12475586 69.18994141 C-24.95522236 66.03910187 -23.78542099 62.88836421 -22.61442566 59.73806763 C-19.7850737 52.12472611 -16.97250568 44.50532668 -14.16796875 36.8828125 C-13.38822437 34.76528446 -12.60843982 32.64777122 -11.82861328 30.53027344 C-10.70022614 27.46625861 -9.57242925 24.40203454 -8.44671631 21.33703613 C-7.40538882 18.50255474 -6.36121206 15.66913825 -5.31640625 12.8359375 C-5.00881882 11.99636505 -4.70123138 11.1567926 -4.38432312 10.29177856 C-4.09837784 9.51792816 -3.81243256 8.74407776 -3.51782227 7.94677734 C-3.14839256 6.94244156 -3.14839256 6.94244156 -2.77149963 5.91781616 C-1.95855833 3.8969831 -0.97412934 1.94825867 0 0 Z M12 20 C11.72349609 21.22783203 11.72349609 21.22783203 11.44140625 22.48046875 C8.02989866 36.86944965 3.45602234 50.90830541 -1 65 C7.91 65 16.82 65 26 65 C23.53912983 55.94359201 23.53912983 55.94359201 20.7734375 47.01171875 C20.3815625 45.81095703 19.9896875 44.61019531 19.5859375 43.37304688 C18.77209252 40.8960703 17.95696803 38.41951379 17.140625 35.94335938 C16.55667969 34.15188477 16.55667969 34.15188477 15.9609375 32.32421875 C15.60821777 31.25260498 15.25549805 30.18099121 14.89208984 29.0769043 C14.0168679 26.05817902 13.45035598 23.10792235 13 20 C12.67 20 12.34 20 12 20 Z " fill="#FEFEFE" transform="translate(822,137)"/>
<path d="M0 0 C20.13 0 40.26 0 61 0 C61 6.27 61 12.54 61 19 C48.46 19 35.92 19 23 19 C23 25.93 23 32.86 23 40 C35.54 40 48.08 40 61 40 C61 46.6 61 53.2 61 60 C48.46 60 35.92 60 23 60 C23 68.58 23 77.16 23 86 C35.54 86 48.08 86 61 86 C61 92.6 61 99.2 61 106 C40.87 106 20.74 106 0 106 C0 71.02 0 36.04 0 0 Z " fill="#FEFEFE" transform="translate(558,137)"/>
<path d="M0 0 C48.24591884 0 48.24591884 0 58.19140625 9.78125 C64.86504491 17.96834883 65.71169878 27.79474792 65 38 C63.10264072 47.97508741 58.32099253 55.18516089 50 61 C43.64915491 64.52136289 37.73800579 65.22829181 30.625 65.09765625 C29.88894531 65.09060669 29.15289062 65.08355713 28.39453125 65.07629395 C26.5962669 65.05804857 24.79810615 65.03003072 23 65 C23.00785522 66.8097229 23.00785522 66.8097229 23.01586914 68.65600586 C23.03391611 73.11563378 23.04543089 77.57525846 23.05493164 82.03491211 C23.05997256 83.96818585 23.06680519 85.90145576 23.07543945 87.8347168 C23.08751565 90.60726872 23.09323057 93.37977041 23.09765625 96.15234375 C23.10281754 97.02213364 23.10797882 97.89192352 23.11329651 98.78807068 C23.11349185 100.85905814 23.06208168 102.92994324 23 105 C22.67 105.33 22.34 105.66 22 106 C14.74 106 7.48 106 0 106 C0 71.02 0 36.04 0 0 Z M23 17 C23 26.9 23 36.8 23 47 C30.07853925 47 34.03450656 46.57529693 39.375 41.9375 C42.05364556 37.09533303 42.59312281 32.11783138 41.55859375 26.6796875 C40.42818657 23.17865498 39.48040208 21.38185806 36.5625 19.0625 C31.47589352 16.95341927 28.94673176 17 23 17 Z " fill="#FEFEFE" transform="translate(479,137)"/>
<path d="M0 0 C24.09 0 48.18 0 73 0 C73 6.6 73 13.2 73 20 C64.75 20 56.5 20 48 20 C48 48.38 48 76.76 48 106 C40.41 106 32.82 106 25 106 C25 77.62 25 49.24 25 20 C16.75 20 8.5 20 0 20 C0 13.4 0 6.8 0 0 Z " fill="#FEFEFE" transform="translate(717,137)"/>
<path d="M0 0 C3.24900717 1.08300239 3.74706612 1.63159369 5.8125 4.1875 C9.33274052 8.35324305 13.12241821 12.17222201 17 16 C24.34692996 23.26895322 24.34692996 23.26895322 27.4375 26.9375 C31.49409706 31.74109191 36.04336255 36.06727143 40.50683594 40.48730469 C44.36888672 44.32614835 48.11381947 48.20251093 51.60546875 52.38671875 C53.30252984 54.3499855 55.16500236 56.16500236 57 58 C57.33 40.84 57.66 23.68 58 6 C62.62 6 67.24 6 72 6 C72 34.05 72 62.1 72 91 C68.14221683 89.07110842 66.1662139 87.40531367 63.1875 84.375 C62.37667969 83.55773437 61.56585937 82.74046875 60.73046875 81.8984375 C58.65008548 79.69007644 56.65479036 77.46027449 54.67578125 75.1640625 C50.97660155 70.90531349 47.02545004 66.94833414 43 63 C39.15689657 59.23051924 35.3606846 55.48094426 31.875 51.375 C26.20935079 44.97829928 20.04224135 39.04224135 14 33 C13.67 50.49 13.34 67.98 13 86 C8.71 86 4.42 86 0 86 C0 57.62 0 29.24 0 0 Z " fill="#FEFEFE" transform="translate(746,283)"/>
<path d="M0 0 C2.40224324 1.90393055 4.05418521 3.58087891 6 6 C5.70438683 9.24531845 4.43092177 11.02364184 2.1875 13.3125 C1.68605469 13.84488281 1.18460938 14.37726563 0.66796875 14.92578125 C-1 16 -1 16 -3.05078125 15.8125 C-6.01385524 14.577391 -7.77180981 12.28124233 -10 10 C-17.08274169 4.49120091 -23.63096717 3.43404738 -32.3203125 4.45703125 C-39.93149093 5.99923796 -46.3665866 10.31887307 -50.6875 16.75 C-55.33545417 24.64275236 -56.11484705 32.99998572 -54.0625 41.875 C-51.75833751 48.88484645 -46.87718846 54.51361349 -40.69140625 58.48046875 C-33.12692235 62.11194542 -26.44293116 62.85897033 -18.4609375 60.1328125 C-10.05825527 56.26491115 -7.81437326 51.58233985 -4 43 C-10.6 43 -17.2 43 -24 43 C-24 39.04 -24 35.08 -24 31 C-12.78 31 -1.56 31 10 31 C10 43.43723113 9.35607369 53.37350194 1.0390625 63 C-7.17656085 71.05823593 -15.9948991 74.96585701 -27.5 75.375 C-39.89178396 74.9519519 -50.19655541 70.24728675 -58.8125 61.375 C-66.48261248 52.40164717 -69.40593482 41.94027849 -69.27734375 30.32421875 C-68.20173934 17.43211525 -62.3149778 7.06767606 -52.5703125 -1.20703125 C-36.04663141 -12.73342885 -16.00554258 -11.33840324 0 0 Z " fill="#FEFEFE" transform="translate(553,296)"/>
<path d="M0 0 C2.23088884 1.69163425 4.30716318 3.44868002 6.359375 5.3515625 C6.90722656 5.84398437 7.45507812 6.33640625 8.01953125 6.84375 C9.421875 8.1640625 9.421875 8.1640625 11.359375 10.3515625 C11.359375 11.0115625 11.359375 11.6715625 11.359375 12.3515625 C9.609375 14.078125 9.609375 14.078125 7.359375 15.9765625 C6.616875 16.60820312 5.874375 17.23984375 5.109375 17.890625 C4.531875 18.37273437 3.954375 18.85484375 3.359375 19.3515625 C0.47049098 18.03614472 -1.6436768 16.58020365 -3.953125 14.4140625 C-10.012083 9.15098457 -16.68297453 7.14995288 -24.640625 7.3515625 C-34.09981872 9.03722147 -41.1422719 13.48518711 -46.640625 21.3515625 C-50.95786867 28.54696862 -50.65937676 37.71630499 -49.20703125 45.75 C-46.85841368 53.13136951 -41.47554054 58.65756855 -34.765625 62.2890625 C-28.35810377 65.14869754 -22.82903735 66.23254177 -16.015625 64.2265625 C-8.48620217 61.30940392 -4.09847341 57.66624183 -0.640625 50.3515625 C-0.310625 49.0315625 0.019375 47.7115625 0.359375 46.3515625 C-6.240625 46.3515625 -12.840625 46.3515625 -19.640625 46.3515625 C-19.640625 42.3915625 -19.640625 38.4315625 -19.640625 34.3515625 C-8.420625 34.3515625 2.799375 34.3515625 14.359375 34.3515625 C14.359375 49.74328955 13.72165698 57.55767887 3.54296875 68.26171875 C-4.56087762 75.97265136 -14.52889604 78.78399398 -25.546875 78.62109375 C-37.03248952 77.62045309 -46.45773138 72.65260058 -54.48046875 64.4765625 C-56.08756369 62.51369845 -57.37218772 60.54812462 -58.640625 58.3515625 C-59.1253125 57.536875 -59.61 56.7221875 -60.109375 55.8828125 C-65.20869859 45.79748362 -65.40498314 33.58776261 -62.75390625 22.71484375 C-58.64502107 12.05358354 -51.71068248 3.78798514 -41.640625 -1.6484375 C-28.1391538 -7.44703631 -12.8051929 -7.99377426 0 0 Z " fill="#FEFEFE" transform="translate(955.640625,292.6484375)"/>
<path d="M0 0 C32.80645161 0 32.80645161 0 41.0625 7.875 C46.10198046 14.44561447 46.88079111 20.88091268 46 29 C44.18763882 36.2379741 40.00873475 40.76337257 34 45 C32.67313079 45.67944118 31.34058403 46.34803628 30 47 C30.34144043 47.47195801 30.68288086 47.94391602 31.03466797 48.43017578 C34.44316621 53.14269579 37.84833441 57.85760462 41.25048828 62.57470703 C42.36547029 64.12037146 43.48097456 65.66565938 44.59716797 67.21044922 C46.00467948 69.15941756 47.40908709 71.1105792 48.8125 73.0625 C49.23837402 73.65111816 49.66424805 74.23973633 50.10302734 74.84619141 C53 78.88546136 53 78.88546136 53 80 C47.64500587 80.90705672 42.27492159 81.65282557 37 80 C32.6316908 76.8047103 30.02846005 71.81609771 27.33398438 67.22558594 C25.04473058 63.40625255 22.47279154 59.78334288 19.9375 56.125 C19.47174561 55.42955078 19.00599121 54.73410156 18.52612305 54.01757812 C16.29447041 50.45108379 16.29447041 50.45108379 13 48 C13 58.56 13 69.12 13 80 C8.71 80 4.42 80 0 80 C0 53.6 0 27.2 0 0 Z M13 12 C13 19.92 13 27.84 13 36 C22.83764709 36.25786394 22.83764709 36.25786394 31 32 C33.63726563 27.88896828 33.67669452 23.73686163 33 19 C31.15603669 15.66668172 29.76346834 14.38173417 26.375 12.6875 C21.94092432 11.66732586 21.94092432 11.66732586 13 12 Z " fill="#FEFEFE" transform="translate(1059,289)"/>
<path d="M0 0 C7.59 0 15.18 0 23 0 C23 34.98 23 69.96 23 106 C15.41 106 7.82 106 0 106 C0 71.02 0 36.04 0 0 Z " fill="#FEFEFE" transform="translate(1024,137)"/>
<path d="M0 0 C0.66 0 1.32 0 2 0 C7.61935969 12.480614 13.23625238 24.96233595 18.85076904 37.44512939 C19.91088669 39.80189101 20.97126986 42.15853293 22.03173828 44.51513672 C23.77272524 48.38438848 25.51154484 52.25461004 27.25 56.125 C27.74910889 57.23383545 28.24821777 58.3426709 28.76245117 59.48510742 C31.32809637 65.20204839 33.86379143 70.93183253 36.359375 76.6796875 C36.86436523 77.83968262 37.36935547 78.99967773 37.88964844 80.19482422 C39 83 39 83 39 85 C34.38 85 29.76 85 25 85 C23.85214624 82.56343315 22.70664598 80.12580719 21.5625 77.6875 C21.23701172 76.99720703 20.91152344 76.30691406 20.57617188 75.59570312 C19.24512515 72.75522197 17.99292066 69.97876197 17 67 C5.78 66.67 -5.44 66.34 -17 66 C-17.99 68.97 -18.98 71.94 -20 75 C-21.54337179 78.41280804 -23.267494 81.67546147 -25 85 C-29.62 85 -34.24 85 -39 85 C-37.56531279 80.69593838 -36.11439891 76.90151185 -34.19921875 72.8359375 C-33.64065186 71.64532715 -33.08208496 70.4547168 -32.5065918 69.22802734 C-32.21037933 68.6006366 -31.91416687 67.97324585 -31.60897827 67.32684326 C-30.67093542 65.33991348 -29.73691001 63.35113983 -28.80395508 61.36181641 C-27.50978651 58.60264333 -26.21433976 55.84407642 -24.91796875 53.0859375 C-21.99179697 46.85640362 -19.08756162 40.61672846 -16.1875 34.375 C-15.65439209 33.22845947 -15.12128418 32.08191895 -14.57202148 30.90063477 C-10.85474022 22.88846835 -7.2012213 14.84943898 -3.62573242 6.77294922 C-1.10371827 1.10371827 -1.10371827 1.10371827 0 0 Z M0 29 C-1.8363725 32.9777711 -3.66858862 36.9574426 -5.5 40.9375 C-6.02464844 42.07380859 -6.54929687 43.21011719 -7.08984375 44.38085938 C-7.58613281 45.46044922 -8.08242188 46.54003906 -8.59375 47.65234375 C-9.28500977 49.15269165 -9.28500977 49.15269165 -9.99023438 50.68334961 C-11.06659445 52.73159207 -11.06659445 52.73159207 -11 54 C-3.74 54 3.52 54 11 54 C10.23055477 50.15277385 9.51694134 47.59332263 7.93359375 44.13671875 C7.53076172 43.25048828 7.12792969 42.36425781 6.71289062 41.45117188 C6.29201172 40.53916016 5.87113281 39.62714844 5.4375 38.6875 C5.01275391 37.75615234 4.58800781 36.82480469 4.15039062 35.86523438 C3.10493657 33.5746328 2.05468244 31.28636341 1 29 C0.67 29 0.34 29 0 29 Z " fill="#FEFEFE" transform="translate(1011,284)"/>
<path d="M0 0 C3.40114531 3.1308061 4.94216758 6.85302787 6.7734375 11.0234375 C7.13376572 11.82905624 7.49409393 12.63467499 7.86534119 13.46470642 C9.04166317 16.09865538 10.20832297 18.73676663 11.375 21.375 C12.1844716 23.1919483 12.99461598 25.00859703 13.80541992 26.82495117 C15.43635771 30.48091362 17.06374871 34.1384202 18.68798828 37.79736328 C21.60890457 44.37512366 24.55453321 50.94171732 27.50250244 57.50738525 C29.22468175 61.34533666 30.94191433 65.18550846 32.65869141 69.02587891 C33.58266683 71.07463549 34.51792155 73.1183301 35.46240234 75.15771484 C35.92211426 76.15109863 36.38182617 77.14448242 36.85546875 78.16796875 C37.26821045 79.05121826 37.68095215 79.93446777 38.10620117 80.84448242 C39 83 39 83 39 85 C34.38 85 29.76 85 25 85 C21.64708425 78.51283691 19.01747451 73.0611608 17 66 C5.78 66 -5.44 66 -17 66 C-17.66 67.98 -18.32 69.96 -19 72 C-20.92199101 76.37178267 -22.97051234 80.6763089 -25 85 C-29.62 85 -34.24 85 -39 85 C-38.08059091 80.40295455 -36.65212176 76.77956894 -34.640625 72.62109375 C-34.29984421 71.90476273 -33.95906342 71.1884317 -33.60795593 70.45039368 C-32.49361606 68.11035073 -31.37177798 65.77398502 -30.25 63.4375 C-29.08413724 60.99387281 -27.92029659 58.54929005 -26.75669861 56.10458374 C-25.97186376 54.45571998 -25.18643014 52.80714109 -24.40040588 51.15884399 C-20.85415993 43.71595909 -17.38860476 36.23734493 -13.9375 28.75 C-9.46792009 19.07382401 -4.87242419 9.47988271 0 0 Z M0 29 C-1.27869084 31.47537537 -2.54795131 33.95490966 -3.8125 36.4375 C-4.16892578 37.12521484 -4.52535156 37.81292969 -4.89257812 38.52148438 C-5.24384766 39.21435547 -5.59511719 39.90722656 -5.95703125 40.62109375 C-6.27647705 41.2442749 -6.59592285 41.86745605 -6.92504883 42.50952148 C-8.53550894 46.24068287 -9.71488728 50.14466184 -11 54 C-3.74 54 3.52 54 11 54 C8.79277659 47.18671095 8.79277659 47.18671095 6.17578125 40.62109375 C5.86962891 39.92822266 5.56347656 39.23535156 5.24804688 38.52148438 C4.93931641 37.83376953 4.63058594 37.14605469 4.3125 36.4375 C3.99216797 35.71498047 3.67183594 34.99246094 3.34179688 34.24804688 C2.56487057 32.49706371 1.78297505 30.74828676 1 29 C0.67 29 0.34 29 0 29 Z " fill="#FEFEFE" transform="translate(604,284)"/>
<path d="M0 0 C0.66 0 1.32 0 2 0 C4.83555342 6.24899485 7.66871918 12.49906815 10.5 18.75 C10.92473602 19.68773254 11.34947205 20.62546509 11.78707886 21.59161377 C18.62317524 36.69058765 25.39340856 51.81762446 32.09765625 66.97558594 C32.41532455 67.69306 32.73299286 68.41053406 33.06028748 69.14974976 C33.64750041 70.47635818 34.23388139 71.80333534 34.81922913 73.13076782 C35.88412018 75.5367361 36.95366207 77.9128417 38.18920898 80.23681641 C39 82 39 82 39 85 C34.38 85 29.76 85 25 85 C22.36 79.06 19.72 73.12 17 67 C5.78 66.67 -5.44 66.34 -17 66 C-17.33 67.65 -17.66 69.3 -18 71 C-19.13871197 73.48222825 -20.30456915 75.89378543 -21.5625 78.3125 C-21.89185547 78.95767578 -22.22121094 79.60285156 -22.56054688 80.26757812 C-23.36824255 81.84785228 -24.18337613 83.42432105 -25 85 C-29.62 85 -34.24 85 -39 85 C-37.4743822 80.4231466 -35.79558522 76.21443302 -33.7265625 71.890625 C-33.40674911 71.21485916 -33.08693573 70.53909332 -32.75743103 69.84284973 C-32.07200872 68.39528729 -31.38509167 66.94843183 -30.69680786 65.50222778 C-28.87562674 61.67531546 -27.06537729 57.84323433 -25.25390625 54.01171875 C-24.89040573 53.2435936 -24.52690521 52.47546844 -24.15238953 51.68406677 C-20.91187795 44.8302019 -17.72752587 37.95157744 -14.5625 31.0625 C-9.78504276 20.6713291 -4.92476701 10.32211267 0 0 Z M0 29 C-1.8363725 32.9777711 -3.66858862 36.9574426 -5.5 40.9375 C-6.02464844 42.07380859 -6.54929687 43.21011719 -7.08984375 44.38085938 C-7.58613281 45.46044922 -8.08242187 46.54003906 -8.59375 47.65234375 C-9.28500977 49.15269165 -9.28500977 49.15269165 -9.99023438 50.68334961 C-11.06659445 52.73159207 -11.06659445 52.73159207 -11 54 C-3.41 54 4.18 54 12 54 C10.38308226 50.01737051 8.75694686 46.03896556 7.125 42.0625 C6.66480469 40.92619141 6.20460938 39.78988281 5.73046875 38.61914062 C5.28574219 37.53955078 4.84101562 36.45996094 4.3828125 35.34765625 C3.77010498 33.84730835 3.77010498 33.84730835 3.14501953 32.31665039 C2.22009565 29.85851537 2.22009565 29.85851537 0 29 Z " fill="#FEFEFE" transform="translate(1153,284)"/>
<path d="M0 0 C14.85 0 29.7 0 45 0 C45 3.96 45 7.92 45 12 C34.44 12 23.88 12 13 12 C13 17.94 13 23.88 13 30 C23.23 30 33.46 30 44 30 C44 33.96 44 37.92 44 42 C33.77 42 23.54 42 13 42 C13 50.58 13 59.16 13 68 C23.56 68 34.12 68 45 68 C45 71.96 45 75.92 45 80 C30.15 80 15.3 80 0 80 C0 53.6 0 27.2 0 0 Z " fill="#FEFEFE" transform="translate(836,289)"/>
<path d="M0 0 C2.58417807 2.51239534 4.4276349 5.08272983 6.25 8.1875 C6.25 8.8475 6.25 9.5075 6.25 10.1875 C4.81988027 11.05396667 3.38059381 11.90531829 1.9375 12.75 C1.13699219 13.22566406 0.33648438 13.70132812 -0.48828125 14.19140625 C-2.75 15.1875 -2.75 15.1875 -5.75 14.1875 C-6.4925 13.3625 -7.235 12.5375 -8 11.6875 C-11.38944928 8.60618247 -13.20415827 8.1875 -17.75 8.1875 C-21.76519063 9.70266628 -23.35368353 10.5930253 -25.75 14.1875 C-26.06525218 17.65706742 -26.06525218 17.65706742 -24.75 21.1875 C-20.90033622 24.92177877 -15.71597343 26.63120867 -10.8125 28.5625 C-3.49424604 31.54161223 3.05943908 35.14349238 6.8125 42.375 C9.55179231 49.73841879 9.44460965 58.26038498 6.21484375 65.44921875 C2.63940775 71.89079372 -2.04505525 75.30575148 -8.75 78.1875 C-16.891139 80.16979878 -24.0529777 79.3697983 -31.75 76.1875 C-38.01184196 72.28861727 -41.56475005 66.10280124 -43.28125 58.984375 C-43.5625 57.0625 -43.5625 57.0625 -43.75 54.1875 C-42.33461283 53.84877487 -40.91762037 53.51675376 -39.5 53.1875 C-38.71109375 53.001875 -37.9221875 52.81625 -37.109375 52.625 C-34.75 52.1875 -34.75 52.1875 -30.75 52.1875 C-30.50765625 52.87457031 -30.2653125 53.56164062 -30.015625 54.26953125 C-29.68046875 55.17058594 -29.3453125 56.07164062 -29 57 C-28.67515625 57.89332031 -28.3503125 58.78664063 -28.015625 59.70703125 C-26.60354857 62.47452673 -25.3849769 63.59131207 -22.75 65.1875 C-18.1670352 66.64571607 -14.84517419 66.08957169 -10.51953125 64.26171875 C-7.54238989 62.45440335 -6.75373045 60.44962397 -5.75 57.1875 C-5.21276473 52.08376491 -5.71481093 49.30157855 -8.75 45.1875 C-11.32047575 43.47974616 -11.32047575 43.47974616 -14.3125 42.1875 C-15.37726562 41.68476563 -16.44203125 41.18203125 -17.5390625 40.6640625 C-18.59867188 40.17679687 -19.65828125 39.68953125 -20.75 39.1875 C-35.47548526 32.16956901 -35.47548526 32.16956901 -39.015625 25.4375 C-40.86028956 19.78576177 -40.83821146 13.4102801 -38.9375 7.78125 C-35.7452165 2.01740479 -30.05376312 -2.389412 -23.80078125 -4.45703125 C-15.01924916 -5.97916348 -7.42382477 -4.89297542 0 0 Z " fill="#FEFEFE" transform="translate(691.75,291.8125)"/>
</svg>
