<?xml version="1.0" encoding="UTF-8"?>
<svg version="1.1" xmlns="http://www.w3.org/2000/svg" width="1317" height="1317">
<path d="M0 0 C0.97175171 -0.00137466 1.94350342 -0.00274933 2.94470215 -0.00416565 C4.00925125 -0.00057037 5.07380035 0.0030249 6.17060852 0.00672913 C7.29270721 0.0065831 8.41480591 0.00643707 9.57090759 0.00628662 C13.2881614 0.00698454 17.0053654 0.01477134 20.72261047 0.02259827 C23.29665093 0.02446287 25.87069173 0.02588658 28.44473267 0.02688599 C34.532647 0.03031694 40.62054072 0.03820233 46.70844728 0.04823548 C53.63945866 0.0594103 60.5704709 0.06491052 67.50148904 0.06993091 C81.75879958 0.0803853 96.01609501 0.09797622 110.27339172 0.12025452 C109.57286303 3.15208379 108.72036561 5.24580693 106.95796204 7.82337952 C106.46987061 8.54372375 105.98177917 9.26406799 105.47889709 10.00624084 C104.67334381 11.17642761 104.67334381 11.17642761 103.85151672 12.37025452 C103.00704987 13.61295105 103.00704987 13.61295105 102.14552307 14.88075256 C100.92093659 16.68211199 99.69384006 18.48176699 98.46455383 20.27992249 C95.13256182 25.15533377 91.82044635 30.04420904 88.50776672 34.93275452 C87.82190491 35.94418518 87.13604309 36.95561584 86.42939758 37.99769592 C79.44788185 48.30893327 72.60337084 58.70829541 65.77339172 69.12025452 C54.73228553 85.94149622 43.54879239 102.66111055 32.25190735 119.31166077 C22.78040597 133.28433558 13.55143416 147.40517225 4.46943665 161.63389587 C-3.10462313 173.3474421 -9.68687036 180.76663291 -23.72660828 184.12025452 C-29.24298323 185.29176982 -34.61941685 185.25438519 -40.23002625 185.23377991 C-41.79678856 185.23399895 -41.79678856 185.23399895 -43.39520264 185.23422241 C-46.83642171 185.23352756 -50.27758619 185.22575517 -53.71879578 185.21791077 C-56.10918651 185.21604507 -58.49957762 185.21462188 -60.88996887 185.21362305 C-67.17323365 185.20980983 -73.45647521 185.19998974 -79.73973083 185.18891907 C-86.15462429 185.17867925 -92.5695215 185.17411992 -98.98442078 185.16908264 C-111.56515983 185.15836641 -124.14588282 185.14149729 -136.72660828 185.12025452 C-136.11880634 181.0854906 -135.52862407 178.26298442 -133.24223328 174.86244202 C-132.72580261 174.0823175 -132.20937195 173.30219299 -131.67729187 172.49842834 C-130.83545349 171.2593573 -130.83545349 171.2593573 -129.97660828 169.99525452 C-128.78623482 168.20506896 -127.59613844 166.41469915 -126.40629578 164.62416077 C-125.79495789 163.71166565 -125.18362 162.79917053 -124.55375671 161.85902405 C-121.69645409 157.57612441 -118.90043178 153.25399646 -116.10160828 148.93275452 C-115.01586447 147.26205571 -113.92992912 145.59148136 -112.84379578 143.92103577 C-109.96596625 139.49094927 -107.09495839 135.05648283 -104.22660828 130.62025452 C-97.52395253 120.25383828 -90.79114182 109.90704905 -84.06059265 99.55873108 C-78.44094289 90.91794176 -72.82319282 82.27600635 -67.22660828 73.62025452 C-62.18590448 65.82423521 -57.12837012 58.0392317 -52.06645203 50.25697327 C-49.23807977 45.90838212 -46.41447281 41.55671706 -43.59208679 37.20423889 C-41.95311908 34.68032877 -40.30902138 32.15982381 -38.66410828 29.63978577 C-36.89103053 26.92178456 -35.13742181 24.19426226 -33.41410828 21.44447327 C-25.86497644 9.60472157 -14.90699875 -0.01625627 0 0 Z " fill="#0067B1" transform="translate(154.7266082763672,606.8797454833984)"/>
<path d="M0 0 C1.15252762 -0.00058411 2.30505524 -0.00116821 3.49250793 -0.00177002 C7.26395855 0.00099435 11.03459737 0.03200953 14.8059082 0.06347656 C17.43577137 0.07094478 20.06564013 0.07663496 22.69551086 0.08062744 C28.88599301 0.09299983 35.07618851 0.12574241 41.26654512 0.1660254 C48.32103885 0.21092327 55.37554716 0.23277514 62.43014848 0.25280714 C76.92664251 0.29448117 91.42291196 0.36471995 105.91918945 0.45410156 C105.21427822 3.50038064 104.33495834 5.64840618 102.60375977 8.26489258 C102.11578415 9.0082637 101.62780853 9.75163483 101.12504578 10.51753235 C100.58789444 11.32288925 100.0507431 12.12824615 99.49731445 12.95800781 C98.93329422 13.81303391 98.36927399 14.66806 97.78816223 15.54899597 C95.92105347 18.37547302 94.04540704 21.19616425 92.16918945 24.01660156 C90.86872004 25.97964693 89.56851188 27.9428654 88.26855469 29.90625 C78.89668245 44.04364484 69.45535178 58.13475777 59.98168945 72.20410156 C59.3649939 73.1207962 58.74829834 74.03749084 58.11291504 74.98196411 C56.35426261 77.59419101 54.59243349 80.20424176 52.8293457 82.81347656 C52.06229057 83.95299019 52.06229057 83.95299019 51.27973938 85.11552429 C38.0901538 104.58844651 38.0901538 104.58844651 26.91918945 107.45410156 C23.00060757 107.85660144 19.11519455 107.8341851 15.17895508 107.79467773 C14.02686554 107.79511581 12.874776 107.79555389 11.68777466 107.79600525 C7.90015397 107.79392423 4.11298231 107.77062477 0.32543945 107.74707031 C-2.30871336 107.74147194 -4.94286931 107.73720298 -7.57702637 107.73420715 C-13.78879724 107.72490988 -20.00040834 107.70032786 -26.21210909 107.67015868 C-33.28831632 107.6365421 -40.36453146 107.62011049 -47.44079876 107.60507238 C-61.98755149 107.57377597 -76.53417878 107.52106099 -91.08081055 107.45410156 C-90.36940493 104.38015349 -89.4533876 102.1700496 -87.74487305 99.50488281 C-87.26373047 98.74868652 -86.78258789 97.99249023 -86.28686523 97.21337891 C-85.50424316 96.00222412 -85.50424316 96.00222412 -84.70581055 94.76660156 C-84.1634375 93.91791504 -83.62106445 93.06922852 -83.06225586 92.19482422 C-81.40807494 89.61046759 -79.74591397 87.03143155 -78.08081055 84.45410156 C-77.62351563 83.74527832 -77.1662207 83.03645508 -76.69506836 82.30615234 C-74.96949943 79.63314839 -73.24153624 76.96172837 -71.5090332 74.29321289 C-67.33698375 67.86554321 -63.20790121 61.41070561 -59.08081055 54.95410156 C-47.18214 36.34900901 -47.18214 36.34900901 -41.34545898 27.40380859 C-40.02923335 25.37458505 -38.73058003 23.33473433 -37.43237305 21.29394531 C-27.70250577 6.12738557 -18.59589502 -0.25138152 0 0 Z " fill="#C5D000" transform="translate(324.080810546875,606.5458984375)"/>
<path d="M0 0 C15.7340477 -0.11705132 31.46797691 -0.20509435 47.20235252 -0.25906086 C54.50891085 -0.28478991 61.81519789 -0.319838 69.12158203 -0.37719727 C75.49342147 -0.42719577 81.86506434 -0.4593295 88.23709452 -0.47044247 C91.60790968 -0.47693373 94.97816272 -0.4920766 98.34879684 -0.52865028 C102.12137577 -0.56508386 105.89280006 -0.56993903 109.66552734 -0.56762695 C111.32278336 -0.59459152 111.32278336 -0.59459152 113.01351929 -0.62210083 C121.28689015 -0.5674368 127.89393837 1.33277048 134.15811729 6.92747021 C140.12467806 13.03380084 144.29151252 20.62704465 148.69677734 27.87939453 C150.78073469 31.27041243 152.95172126 34.60328692 155.125 37.9375 C159.78305413 45.10399691 164.39704403 52.29800067 169 59.5 C173.62868435 66.74036369 178.2652177 73.97518444 182.9375 81.1875 C183.36909424 81.85539551 183.80068848 82.52329102 184.24536133 83.21142578 C186.37156452 86.49941942 188.51120003 89.77751071 190.671875 93.04296875 C191.09605713 93.68919189 191.52023926 94.33541504 191.95727539 95.0012207 C192.75292932 96.21309686 193.55386117 97.4215313 194.36108398 98.62573242 C196.13415988 101.33756783 197 102.68545299 197 106 C181.77021705 106.09361568 166.54044742 106.16406341 151.31044102 106.20724869 C144.23819396 106.22783714 137.16612613 106.25588603 130.09399414 106.30175781 C123.2664362 106.34602196 116.43906442 106.36915153 109.61137199 106.37950897 C107.00911469 106.38688831 104.40686734 106.4012984 101.80468941 106.42292023 C98.15415738 106.45204114 94.50438963 106.45595219 90.85375977 106.45410156 C89.7827301 106.46848267 88.71170044 106.48286377 87.60821533 106.49768066 C77.87792499 106.44445614 70.95330233 103.58068894 63.84262085 96.95935059 C60.73656037 93.65652168 58.31743337 90.0228569 55.89453125 86.203125 C55.06322189 84.92681717 55.06322189 84.92681717 54.21511841 83.62472534 C53.02362499 81.7929186 51.83747063 79.95762986 50.65621948 78.11920166 C47.48983615 73.19166664 44.28450628 68.28948916 41.0859375 63.3828125 C40.42687912 62.36923676 39.76782074 61.35566101 39.08879089 60.31137085 C31.83083559 49.16434802 24.39338458 38.14020857 16.9375 27.125 C15.68915524 25.2790077 14.44086282 23.43298 13.19262695 21.58691406 C11.50725906 19.09472879 9.82153471 16.60279181 8.13406372 14.11203003 C7.18261772 12.7075407 6.232536 11.3021257 5.28414917 9.89556885 C4.44961891 8.66369517 3.6079616 7.43660917 2.75808716 6.215271 C0 2.21364841 0 2.21364841 0 0 Z " fill="#DF0512" transform="translate(233,471)"/>
<path d="M0 0 C9.24 0 18.48 0 28 0 C28.76030518 2.02922607 29.52061035 4.05845215 30.30395508 6.14916992 C32.86582112 12.98643 35.42834236 19.8234444 37.99115467 26.66034985 C39.53924389 30.79029982 41.08713751 34.92032284 42.63452148 39.05053711 C50.37765808 59.71770207 58.15121867 80.3726987 66 101 C67.40687732 95.01515995 68.5294391 89.04773191 69.40454102 82.96362305 C69.53002319 82.11041977 69.65550537 81.25721649 69.78479004 80.37815857 C70.19418068 77.58977802 70.59899585 74.80075306 71.00390625 72.01171875 C71.28976867 70.06113182 71.57598343 68.11059649 71.86253357 66.16011047 C72.61291632 61.04771604 73.35969451 55.93480261 74.10534668 50.82171631 C75.30149786 42.62097408 76.50140052 34.42078485 77.70463371 26.22107887 C78.12355486 23.36075715 78.53985545 20.5000624 78.95594788 17.639328 C79.2121482 15.88933856 79.46844484 14.13936322 79.72485352 12.3894043 C79.89708687 11.19788757 79.89708687 11.19788757 80.07279968 9.9822998 C80.57199695 6.59038232 81.16728404 3.33086383 82 0 C90.25 0 98.5 0 107 0 C111.5 11.25 111.5 11.25 113.01464844 16.09228516 C113.3546991 17.17265045 113.69474976 18.25301575 114.04510498 19.36611938 C114.39631409 20.49569061 114.74752319 21.62526184 115.109375 22.7890625 C115.48104797 23.97349945 115.85272095 25.1579364 116.23565674 26.37826538 C117.41077921 30.12603772 118.58047303 33.87547823 119.75 37.625 C120.54998002 40.18124124 121.35119922 42.73709199 122.15234375 45.29296875 C124.10567969 51.52736339 126.05457292 57.76313318 128 64 C129.82127385 61.26808922 130.66014989 59.32481973 131.63232422 56.24414062 C132.09322952 54.79618103 132.09322952 54.79618103 132.56344604 53.31896973 C132.89055573 52.27527222 133.21766541 51.23157471 133.5546875 50.15625 C133.89750763 49.07678101 134.24032776 47.99731201 134.59353638 46.88513184 C135.69183078 43.42481974 136.78381291 39.96255929 137.875 36.5 C138.95986778 33.06627519 140.04613917 29.63300949 141.13504028 26.20056152 C141.81212032 24.06537893 142.48681101 21.9294366 143.15866089 19.79260254 C143.47223541 18.80207886 143.78580994 17.81155518 144.10888672 16.79101562 C144.37821014 15.93624634 144.64753357 15.08147705 144.92501831 14.20080566 C146.52540882 9.43557193 148.28212651 4.72415209 150 0 C158.25 0 166.5 0 175 0 C178.57503913 21.74733488 181.92854531 43.52204481 185.13183594 65.32714844 C185.76202084 69.61480353 186.39955704 73.90133533 187.03852654 78.18768883 C187.53466212 81.52409418 188.0258335 84.86121603 188.51556778 88.19856644 C188.74898028 89.78335309 188.98424236 91.36786849 189.22140121 92.95209885 C189.54722759 95.13188274 189.86607879 97.31257389 190.18310547 99.49365234 C190.36565887 100.73029633 190.54821228 101.96694031 190.73629761 103.24105835 C190.8233194 104.15150909 190.91034119 105.06195984 191 106 C190 107 190 107 187.77514648 107.11352539 C186.33764038 107.10567017 186.33764038 107.10567017 184.87109375 107.09765625 C183.31938477 107.09282227 183.31938477 107.09282227 181.73632812 107.08789062 C180.64771484 107.07951172 179.55910156 107.07113281 178.4375 107.0625 C176.7987793 107.05573242 176.7987793 107.05573242 175.12695312 107.04882812 C172.41791505 107.03699826 169.70898401 107.02051543 167 107 C166.901996 106.16283951 166.803992 105.32567902 166.70301819 104.46315002 C165.78053194 96.58980922 164.85391355 88.7169683 163.92260075 80.84466648 C163.44390331 76.79701978 162.96682963 72.7491952 162.4934082 68.70092773 C162.03682904 64.79718954 161.57606135 60.8939669 161.1123333 56.9910717 C160.93578955 55.49884719 160.76077902 54.0064405 160.58729744 52.51385689 C160.34483762 50.4300461 160.09702928 48.34693844 159.84790039 46.26391602 C159.70800186 45.07588882 159.56810333 43.88786163 159.42396545 42.66383362 C159.28083986 40.08511449 159.28083986 40.08511449 158 39 C157.81287445 39.5864328 157.6257489 40.1728656 157.43295288 40.77706909 C155.45456938 46.97633345 153.47455011 53.17507375 151.49365234 59.37353516 C150.75822123 61.67548912 150.02318361 63.97756883 149.28857422 66.27978516 C144.94746251 79.88351447 140.56289482 93.46888313 136 107 C131.05 107 126.1 107 121 107 C113.55376565 84.03528609 106.24647412 61.02847666 99 38 C97.59354974 46.01808509 96.44787349 54.02970152 95.52734375 62.1171875 C95.39936905 63.21797638 95.27139435 64.31876526 95.13954163 65.45291138 C94.73605306 68.92662273 94.33649512 72.4007699 93.9375 75.875 C93.53440383 79.37058829 93.13043073 82.86606972 92.7247467 86.36135864 C92.47380195 88.52480587 92.22440834 90.68843376 91.97679138 92.8522644 C91.42843406 97.59211933 90.85289038 102.30285005 90 107 C73.25359483 107.94986041 56.74640517 107.94986041 40 107 C38.85297813 104.06296271 37.7075888 101.12529143 36.5625 98.1875 C36.07426758 96.93743164 36.07426758 96.93743164 35.57617188 95.66210938 C35.26357422 94.85966797 34.95097656 94.05722656 34.62890625 93.23046875 C34.1968689 92.12288208 34.1968689 92.12288208 33.75610352 90.99291992 C33.13028355 89.34339833 32.5579043 87.67371291 32 86 C19.46 85.67 6.92 85.34 -6 85 C-6.66 87.97 -7.32 90.94 -8 94 C-8.65002664 96.17820248 -9.33286387 98.34715727 -10.0625 100.5 C-10.40410156 101.5209375 -10.74570312 102.541875 -11.09765625 103.59375 C-12 106 -12 106 -13 107 C-14.85369611 107.08737645 -16.71067541 107.10698153 -18.56640625 107.09765625 C-19.69111328 107.09443359 -20.81582031 107.09121094 -21.97460938 107.08789062 C-23.15861328 107.07951172 -24.34261719 107.07113281 -25.5625 107.0625 C-26.75037109 107.05798828 -27.93824219 107.05347656 -29.16210938 107.04882812 C-32.10812226 107.03699675 -35.05403681 107.02051287 -38 107 C-37.41972594 101.59145778 -36.08774698 96.97864506 -34.140625 91.9140625 C-33.8435968 91.12343918 -33.5465686 90.33281586 -33.24053955 89.51823425 C-32.59142015 87.79262008 -31.93909128 86.06821058 -31.28393555 84.34487915 C-29.86364476 80.60865079 -28.45880281 76.86667564 -27.05322266 73.12489319 C-26.28801749 71.08794107 -25.5220458 69.05127678 -24.75537109 67.01487732 C-19.84233331 53.95293957 -15.03178342 40.85317119 -10.21476746 27.7556076 C-9.02956417 24.53361212 -7.84337799 21.31197856 -6.65722656 18.09033203 C-4.43722597 12.06056102 -2.21862618 6.03027756 0 0 Z M13 25 C12.8040625 25.79277344 12.608125 26.58554687 12.40625 27.40234375 C9.14819245 40.11157686 5.04735379 52.52065916 1 65 C9.25 65 17.5 65 26 65 C23.55714528 56.8431645 23.55714528 56.8431645 20.9921875 48.73046875 C20.64542969 47.65732422 20.29867187 46.58417969 19.94140625 45.47851562 C19.22399882 43.26453847 18.50522456 41.0510038 17.78515625 38.83789062 C17.44097656 37.77119141 17.09679687 36.70449219 16.7421875 35.60546875 C16.4313623 34.64793701 16.12053711 33.69040527 15.80029297 32.70385742 C15.04370856 30.14767305 14.47691648 27.62125442 14 25 C13.67 25 13.34 25 13 25 Z " fill="#000000" transform="translate(839,607)"/>
<path d="M0 0 C8.25 0 16.5 0 25 0 C32.94204049 8.63871071 32.94204049 8.63871071 35.04296875 12.73828125 C38.02910462 18.21371038 41.6243219 23.01581737 45.4375 27.9375 C46.69929674 29.60995897 47.95841007 31.2844458 49.21484375 32.9609375 C49.83858887 33.79077148 50.46233398 34.62060547 51.10498047 35.47558594 C54.24817573 39.66273345 57.38029297 43.85782398 60.5 48.0625 C61.32649048 49.16742798 61.32649048 49.16742798 62.16967773 50.29467773 C66.43330172 56.0568031 70.1231753 61.90784691 74 68 C74.33 45.56 74.66 23.12 75 0 C82.59 0 90.18 0 98 0 C99.54010687 1.54010687 99.12593583 2.9539859 99.12698364 5.09973145 C99.13121338 6.42485497 99.13121338 6.42485497 99.13552856 7.77674866 C99.13249222 9.24174049 99.13249222 9.24174049 99.12939453 10.73632812 C99.13202301 12.27032509 99.13202301 12.27032509 99.13470459 13.83531189 C99.13912527 17.23397492 99.13618435 20.63258639 99.1328125 24.03125 C99.13348548 26.38155121 99.13445545 28.73185235 99.13571167 31.08215332 C99.13718894 36.01522482 99.13503316 40.94827825 99.13037109 45.88134766 C99.1246738 52.22050667 99.12795265 58.55962336 99.13394356 64.89878082 C99.13754839 69.75417401 99.13641094 74.60955708 99.13381577 79.46495056 C99.13314628 81.80305486 99.13397566 84.14116006 99.13629532 86.47926331 C99.13882057 89.74075777 99.13498304 93.00218263 99.12939453 96.26367188 C99.13141876 97.2403331 99.13344299 98.21699432 99.13552856 99.22325134 C99.13270874 100.10666702 99.12988892 100.9900827 99.12698364 101.90026855 C99.1264181 103.0583968 99.1264181 103.0583968 99.12584114 104.23992157 C99 106 99 106 98 107 C92.23201488 107.74843517 86.3688915 107.78222171 80.5625 107.625 C79.60730469 107.59921875 78.65210938 107.5734375 77.66796875 107.546875 C74.33260595 106.86319888 72.82022167 105.57909001 70.4375 103.1875 C69.26226352 101.14161156 68.12129477 99.07594275 67 97 C64.91167545 94.00393087 62.69720319 91.10423936 60.5 88.1875 C59.28107397 86.52582284 58.06366296 84.86303343 56.84765625 83.19921875 C54.26756113 79.69307151 51.65028526 76.2199159 48.99609375 72.76953125 C48.31933594 71.88950439 47.64257812 71.00947754 46.9453125 70.1027832 C45.67496376 68.45599478 44.40071159 66.81220378 43.12109375 65.17260742 C36.32431354 56.35713308 30.32608402 47.24581511 24 38 C23.67 60.77 23.34 83.54 23 107 C15.41 107 7.82 107 0 107 C0 71.69 0 36.38 0 0 Z " fill="#000000" transform="translate(1087,607)"/>
<path d="M0 0 C52.89956332 0 52.89956332 0 63 9 C69.66481596 16.46573805 71.35618638 24.31620067 70.875 34.125 C70.29194615 39.46851706 68.91487119 43.5066787 66 48 C65.46375 48.86625 64.9275 49.7325 64.375 50.625 C60.78853036 54.21146964 56.5559625 56.7866693 52 59 C51.01 59 50.02 59 49 59 C50.90675448 62.32544258 52.81602652 65.64942746 54.72753906 68.97213745 C55.40767437 70.1547617 56.08736396 71.3376424 56.76660156 72.52078247 C60.34347277 78.7485995 63.94354321 84.95418292 67.703125 91.07421875 C68.54085449 92.44078613 68.54085449 92.44078613 69.39550781 93.83496094 C70.44849025 95.54293306 71.51008417 97.24563211 72.58105469 98.94238281 C73.04930664 99.70260742 73.51755859 100.46283203 74 101.24609375 C74.4125 101.90279053 74.825 102.5594873 75.25 103.23608398 C76 105 76 105 75 108 C66.03687387 109.54828364 56.53633916 110.70656832 48 107 C41.05872277 99.90141688 37.38715446 90.23552754 33.83496094 81.1003418 C31.33438561 75.51264054 28.0845502 70.28780034 25 65 C24.67 78.86 24.34 92.72 24 107 C16.08 107 8.16 107 0 107 C0 71.69 0 36.38 0 0 Z M24 20 C24 28.25 24 36.5 24 45 C34.48458967 44.80748274 34.48458967 44.80748274 44 41 C46.97969283 36.53046076 46.48328869 32.23946314 46 27 C45.09819664 23.90644342 45.09819664 23.90644342 43 22 C38.5815648 20.16968891 34.88338191 19.77789017 30.125 19.875 C28.10375 19.91625 26.0825 19.9575 24 20 Z " fill="#000000" transform="translate(657,607)"/>
<path d="M0 0 C9.24 0 18.48 0 28 0 C31.18302113 8.44371011 34.36579694 16.8875126 37.54819107 25.33145905 C39.02743028 29.25634443 40.50675922 33.18119592 41.98632812 37.10595703 C42.41173763 38.2344809 42.41173763 38.2344809 42.84574127 39.38580322 C43.41813767 40.90417994 43.99060186 42.42253111 44.56313324 43.94085693 C45.99685064 47.743687 47.4287456 51.54718619 48.85705566 55.35205078 C51.43393809 62.21322961 54.01947719 69.07016896 56.66115189 75.90671539 C57.79776864 78.85098872 58.92592847 81.79846645 60.05321503 84.74632263 C60.58413428 86.12764223 61.11917551 87.50738568 61.658638 88.88539124 C62.4024077 90.78604886 63.13073977 92.69272562 63.85839844 94.59960938 C64.48122711 96.20709045 64.48122711 96.20709045 65.11663818 97.8470459 C66 101 66 101 66 108 C53.13 107.505 53.13 107.505 40 107 C38.865625 104.091875 37.73125 101.18375 36.5625 98.1875 C36.20615479 97.27508545 35.84980957 96.3626709 35.48266602 95.42260742 C35.20092529 94.69920166 34.91918457 93.9757959 34.62890625 93.23046875 C34.1968689 92.12288208 34.1968689 92.12288208 33.75610352 90.99291992 C33.13028355 89.34339833 32.5579043 87.67371291 32 86 C19.46 85.67 6.92 85.34 -6 85 C-6.66 87.97 -7.32 90.94 -8 94 C-9.25394388 98.36134496 -10.63320046 102.67180147 -12 107 C-20.58 107 -29.16 107 -38 107 C-37.35275705 103.11654228 -36.86977055 100.23532625 -35.57983398 96.68676758 C-35.29062073 95.88348526 -35.00140747 95.08020294 -34.70343018 94.25257874 C-34.38750916 93.39192307 -34.07158813 92.5312674 -33.74609375 91.64453125 C-33.41333435 90.72574692 -33.08057495 89.80696259 -32.73773193 88.8603363 C-31.64292127 85.84244702 -30.54040446 82.82743982 -29.4375 79.8125 C-28.67396307 77.71396612 -27.91070152 75.61533202 -27.14770508 73.51660156 C-20.34818991 54.84264608 -13.43425168 36.21068106 -6.45843506 17.60191345 C-4.26724384 11.74759687 -2.13654993 5.87551231 0 0 Z M13 24 C12.68869141 25.36705078 12.68869141 25.36705078 12.37109375 26.76171875 C10.18838356 36.03216046 7.44464352 45.00430601 4.28686523 53.9909668 C3.99110596 54.844729 3.69534668 55.69849121 3.390625 56.578125 C2.9889209 57.71362793 2.9889209 57.71362793 2.57910156 58.87207031 C1.82493814 61.27571756 1.82493814 61.27571756 2 65 C9.92 65 17.84 65 26 65 C23.67617978 56.36152922 23.67617978 56.36152922 20.9921875 47.88671875 C20.64542969 46.86642578 20.29867188 45.84613281 19.94140625 44.79492188 C19.223649 42.70343509 18.50488015 40.61229521 17.78515625 38.52148438 C17.44097656 37.50763672 17.09679688 36.49378906 16.7421875 35.44921875 C16.4313623 34.54518311 16.12053711 33.64114746 15.80029297 32.7097168 C14.94750314 29.82225056 14.43771741 26.97631443 14 24 C13.67 24 13.34 24 13 24 Z " fill="#000000" transform="translate(1232,607)"/>
<path d="M0 0 C1.86474609 0.23999023 1.86474609 0.23999023 4 1 C5.17822266 2.77368164 5.17822266 2.77368164 6.1640625 5.16015625 C6.55489014 6.07917725 6.94571777 6.99819824 7.34838867 7.94506836 C7.76967041 8.9738208 8.19095215 10.00257324 8.625 11.0625 C9.58990137 13.33701948 10.55755119 15.61037418 11.52734375 17.8828125 C11.79140518 18.50588791 12.05546661 19.12896332 12.32752991 19.7709198 C16.13336706 28.72490755 20.179522 37.57275063 24.1875 46.4375 C26.76454924 52.14618212 29.33637606 57.85718655 31.90423584 63.57000732 C33.04052705 66.08987374 34.1852935 68.60578665 35.33056641 71.12158203 C36.07082426 72.75935594 36.81090265 74.39721097 37.55078125 76.03515625 C37.89835983 76.79307968 38.24593842 77.55100311 38.60404968 78.33189392 C41 83.65988734 41 83.65988734 41 87 C36.05 87 31.1 87 26 87 C22.64748836 80.56680199 20.33939556 75.01818667 18 68 C1.665 68.495 1.665 68.495 -15 69 C-17.64 74.94 -20.28 80.88 -23 87 C-51.52939672 89.20209752 -51.52939672 89.20209752 -58.46533203 85.78564453 C-62.09906777 82.61021781 -64.02078302 78.59527739 -65.93115234 74.22998047 C-67.4579385 71.04458422 -69.45463367 68.27249965 -71.5090332 65.40844727 C-73.72604657 62.30978814 -75.85449692 59.14859543 -78 56 C-78.33 66.23 -78.66 76.46 -79 87 C-83.62 87 -88.24 87 -93 87 C-94.51143336 83.97713327 -94.13858807 80.85209725 -94.12939453 77.53686523 C-94.13114685 76.7676474 -94.13289917 75.99842957 -94.13470459 75.2059021 C-94.1391152 72.65677654 -94.13618818 70.10772004 -94.1328125 67.55859375 C-94.1334857 65.79264818 -94.13445585 64.0267027 -94.13571167 62.26075745 C-94.13718751 58.55769978 -94.13503746 54.8546662 -94.13037109 51.15161133 C-94.12466971 46.39421137 -94.12795612 41.63686777 -94.13394356 36.87946987 C-94.13754867 33.23276847 -94.13641089 29.58608054 -94.13381577 25.93937874 C-94.13314657 24.18461157 -94.13397465 22.4298432 -94.13629532 20.67507744 C-94.13882149 18.22793183 -94.13498197 15.7808789 -94.12939453 13.33374023 C-94.13141876 12.60176926 -94.13344299 11.86979828 -94.13552856 11.11564636 C-94.11426354 6.11426354 -94.11426354 6.11426354 -93 5 C-89.02844937 4.71554819 -85.0429972 4.76802149 -81.0625 4.75 C-79.40637695 4.7190625 -79.40637695 4.7190625 -77.71679688 4.6875 C-67.74638809 4.64038643 -59.09059375 5.80712139 -51.6953125 12.91796875 C-47.24902953 18.37849599 -45.30140012 24.84097635 -45.68359375 31.84375 C-46.69722745 38.75147598 -49.70270158 44.40317079 -55 49 C-57.29422298 50.42023327 -59.62878399 51.70763108 -62 53 C-58.55173124 57.8939347 -55.09896499 62.78464742 -51.64257812 67.67285156 C-50.10640461 69.84924959 -48.57600442 72.02958757 -47.046875 74.2109375 C-46.15642181 75.47407947 -45.26580576 76.73710665 -44.375 78 C-43.9620166 78.59248535 -43.5490332 79.1849707 -43.12353516 79.79541016 C-41.01461413 82.8911141 -41.01461413 82.8911141 -38 85 C-37.91403564 84.34668701 -37.82807129 83.69337402 -37.73950195 83.02026367 C-36.74410051 78.95485881 -34.99156798 75.43027201 -33.16796875 71.67578125 C-32.77988037 70.86492569 -32.39179199 70.05407013 -31.99194336 69.21864319 C-31.15998601 67.4816654 -30.32554642 65.74587474 -29.48886108 64.01116943 C-27.30401371 59.4803894 -25.13793706 54.94063615 -22.96875 50.40234375 C-22.53886276 49.50433044 -22.10897552 48.60631714 -21.6660614 47.68109131 C-14.13251923 31.93426042 -6.68604164 16.12860922 0 0 Z M-79 19 C-79 26.26 -79 33.52 -79 41 C-69.97179535 41.43801182 -69.97179535 41.43801182 -63 38 C-60.1800359 33.77005384 -60.20768812 29.96779552 -61 25 C-63.52676039 21.65374976 -65.03933542 20.32022153 -69 19 C-72.3 19 -75.6 19 -79 19 Z M1 31 C-2.3 38.59 -5.6 46.18 -9 54 C-2.4 54 4.2 54 11 54 C10.26272525 50.31362623 9.64603292 47.86981865 8.15234375 44.57421875 C7.61577148 43.38022461 7.61577148 43.38022461 7.06835938 42.16210938 C6.69517578 41.34548828 6.32199219 40.52886719 5.9375 39.6875 C5.56044922 38.85154297 5.18339844 38.01558594 4.79492188 37.15429688 C3.86788193 35.10072738 2.93613122 33.04943713 2 31 C1.67 31 1.34 31 1 31 Z " fill="#CE0510" transform="translate(1170,754)"/>
<path d="M0 0 C15.3140625 -0.0309375 15.3140625 -0.0309375 30.9375 -0.0625 C35.7790979 -0.07615601 35.7790979 -0.07615601 40.71850586 -0.09008789 C43.2589514 -0.09300676 45.7993974 -0.09555539 48.33984375 -0.09765625 C49.00407852 -0.10026962 49.66831329 -0.102883 50.35267639 -0.10557556 C52.30012857 -0.11285688 54.24760258 -0.1133384 56.19506836 -0.11352539 C57.29427109 -0.115746 58.39347382 -0.11796661 59.52598572 -0.12025452 C62 0 62 0 63 1 C63.08669432 2.4887186 63.10703494 3.981445 63.09765625 5.47265625 C63.09515869 6.28226807 63.09266113 7.09187988 63.09008789 7.92602539 C63.08098389 8.96106201 63.07187988 9.99609863 63.0625 11.0625 C63.041875 14.341875 63.02125 17.62125 63 21 C50.46 21 37.92 21 25 21 C25 27.27 25 33.54 25 40 C28.98900391 39.98259766 28.98900391 39.98259766 33.05859375 39.96484375 C35.62345256 39.95705348 38.18831007 39.95097655 40.75317383 39.94506836 C42.54094021 39.94002782 44.32870245 39.93319546 46.11645508 39.92456055 C48.68051168 39.9124827 51.24451397 39.90676906 53.80859375 39.90234375 C54.6127623 39.89718246 55.41693085 39.89202118 56.24546814 39.88670349 C58.16401715 39.88650785 60.08245368 39.93798017 62 40 C63 41 63 41 63.11352539 43.04125977 C63.10828857 43.91580811 63.10305176 44.79035645 63.09765625 45.69140625 C63.09515869 46.54162354 63.09266113 47.39184082 63.09008789 48.26782227 C63.08098389 49.35506592 63.07187988 50.44230957 63.0625 51.5625 C63.041875 55.006875 63.02125 58.45125 63 62 C50.46 62 37.92 62 25 62 C25 69.92 25 77.84 25 86 C28.98900391 85.98259766 28.98900391 85.98259766 33.05859375 85.96484375 C35.62345256 85.95705348 38.18831007 85.95097655 40.75317383 85.94506836 C42.54094021 85.94002782 44.32870245 85.93319546 46.11645508 85.92456055 C48.68051168 85.9124827 51.24451397 85.90676906 53.80859375 85.90234375 C54.6127623 85.89718246 55.41693085 85.89202118 56.24546814 85.88670349 C58.16401715 85.88650785 60.08245368 85.93798017 62 86 C66.95535625 90.95535625 63 99.99206799 63 107 C42.21 107 21.42 107 0 107 C0 71.69 0 36.38 0 0 Z " fill="#000000" transform="translate(575,607)"/>
<path d="M0 0 C47.50971178 0 47.50971178 0 57.28515625 8.24609375 C64.53416109 15.66022399 66.93064313 23.36082235 67.25 33.5625 C66.94007794 43.3594808 64.09003234 50.52030011 57.3671875 57.7578125 C47.46373676 66.92426225 37.33988779 67 24 67 C24 80.2 24 93.4 24 107 C16.08 107 8.16 107 0 107 C0 71.69 0 36.38 0 0 Z M24 19 C24 28.24 24 37.48 24 47 C32.16595943 47.19994891 32.16595943 47.19994891 39 44 C41.92331357 39.39733607 42.5853518 34.36572482 42 29 C40.70297132 24.42225171 39.91524015 22.55632244 35.8125 20.0625 C31.37524241 18.64205568 31.37524241 18.64205568 24 19 Z " fill="#000000" transform="translate(496,607)"/>
<path d="M0 0 C9.63112712 -0.02312465 19.26224474 -0.04091571 28.89339352 -0.05181217 C33.36505549 -0.05704074 37.83669853 -0.06413789 42.30834961 -0.07543945 C46.62011973 -0.08626929 50.93187159 -0.09227704 55.24365425 -0.09487724 C56.89236298 -0.09673132 58.54107066 -0.1003516 60.18977165 -0.10573006 C62.49103872 -0.11294178 64.7922294 -0.11399089 67.09350586 -0.11352539 C69.06207802 -0.11685631 69.06207802 -0.11685631 71.07041931 -0.12025452 C74 0 74 0 75 1 C75.08669432 2.4887186 75.10703494 3.981445 75.09765625 5.47265625 C75.09515869 6.28226807 75.09266113 7.09187988 75.09008789 7.92602539 C75.08098389 8.96106201 75.07187988 9.99609863 75.0625 11.0625 C75.041875 14.341875 75.02125 17.62125 75 21 C66.75 21 58.5 21 50 21 C50 49.38 50 77.76 50 107 C41.75 107 33.5 107 25 107 C25 78.62 25 50.24 25 21 C17.08 21 9.16 21 1 21 C0 20 0 20 -0.11352539 18.05053711 C-0.10567017 16.8015564 -0.10567017 16.8015564 -0.09765625 15.52734375 C-0.09443359 14.62822266 -0.09121094 13.72910156 -0.08789062 12.80273438 C-0.07951172 11.85720703 -0.07113281 10.91167969 -0.0625 9.9375 C-0.05798828 8.98810547 -0.05347656 8.03871094 -0.04882812 7.06054688 C-0.0370011 4.70696935 -0.02052025 2.35351523 0 0 Z " fill="#000000" transform="translate(734,607)"/>
<path d="M0 0 C3 0 3 0 4.5078125 1.43359375 C5.30832031 2.42552734 5.30832031 2.42552734 6.125 3.4375 C8.78633056 6.62099036 11.53789925 9.59350183 14.5 12.5 C17.18326093 15.14730434 19.75256901 17.81096943 22.1875 20.6875 C25.59159983 24.66559325 29.281264 28.32000588 33 32 C40.38500061 39.30814358 40.38500061 39.30814358 43.75 43.25 C47.91866703 48.06000042 52.49922846 52.49922846 57 57 C57.33 39.84 57.66 22.68 58 5 C62.62 5 67.24 5 72 5 C72 33.38 72 61.76 72 91 C67.3203343 89.83008358 65.64970379 87.79209187 62.625 84.3125 C57.59439984 78.68330017 52.38259157 73.30046665 46.98486328 68.02270508 C44.0603151 65.14158227 41.27327501 62.20534604 38.59375 59.09375 C34.8718393 54.78435972 30.87499415 50.79870318 26.8125 46.8125 C25.42076353 45.44646504 24.03137138 44.07803686 22.64453125 42.70703125 C22.03971924 42.1138208 21.43490723 41.52061035 20.81176758 40.90942383 C18.74025189 38.72625119 16.88005397 36.35006746 15 34 C14.67 51.49 14.34 68.98 14 87 C9.38 87 4.76 87 0 87 C-1.56772928 83.86454144 -1.13836428 80.51958803 -1.12939453 77.07788086 C-1.13202301 75.85090233 -1.13202301 75.85090233 -1.13470459 74.59913635 C-1.13911614 71.88768409 -1.13618783 69.17629671 -1.1328125 66.46484375 C-1.13348567 64.58679695 -1.13445581 62.70875024 -1.13571167 60.83070374 C-1.13718764 56.89225435 -1.13503705 52.95382762 -1.13037109 49.01538086 C-1.12466995 43.95531127 -1.12795589 38.89529467 -1.13394356 33.83522701 C-1.13754853 29.95691017 -1.13641095 26.07860599 -1.13381577 22.20028877 C-1.13314652 20.33387814 -1.13397483 18.46746637 -1.13629532 16.60105705 C-1.13882123 13.99824834 -1.13498232 11.39552679 -1.12939453 8.79272461 C-1.13141876 8.01399994 -1.13344299 7.23527527 -1.13552856 6.43295288 C-1.11426338 1.11426338 -1.11426338 1.11426338 0 0 Z " fill="#DA0512" transform="translate(764,754)"/>
<path d="M0 0 C1.19115219 0.85979119 2.37242729 1.73344679 3.54296875 2.62109375 C4.09581543 3.03987793 4.64866211 3.45866211 5.21826172 3.89013672 C8.44294235 6.49924252 10.19152384 8.69190536 11.35546875 12.68359375 C10.28190198 13.83858272 9.19617087 14.98227242 8.10546875 16.12109375 C7.5021875 16.75917969 6.89890625 17.39726563 6.27734375 18.0546875 C4.25498859 19.76875681 2.9427627 20.27718253 0.35546875 20.68359375 C0.01515625 20.2246875 -0.32515625 19.76578125 -0.67578125 19.29296875 C-5.03489546 13.77451566 -9.47342487 10.90440537 -16.20703125 8.93359375 C-25.74767053 7.95506664 -34.31937504 9.6926022 -41.88671875 15.8046875 C-47.94369112 22.27891797 -49.97329694 30.41990812 -49.859375 39.02734375 C-49.29021075 46.06428358 -46.5586225 52.5785404 -41.64453125 57.68359375 C-35.25216582 62.85509968 -28.70151677 65.07177237 -20.51953125 64.49609375 C-13.64783896 63.58056966 -9.13394429 61.00000393 -4.64453125 55.68359375 C-3.89361357 54.31011332 -3.1782383 52.91671444 -2.49609375 51.5078125 C-2.14627441 50.79069092 -1.79645508 50.07356934 -1.43603516 49.3347168 C-1.17483887 48.78984619 -0.91364258 48.24497559 -0.64453125 47.68359375 C-1.50002563 47.69144897 -1.50002563 47.69144897 -2.37280273 47.69946289 C-4.94253448 47.72017596 -7.51224872 47.73323565 -10.08203125 47.74609375 C-10.97986328 47.75447266 -11.87769531 47.76285156 -12.80273438 47.77148438 C-14.08374023 47.77631836 -14.08374023 47.77631836 -15.390625 47.78125 C-16.18138428 47.78648682 -16.97214355 47.79172363 -17.78686523 47.79711914 C-19.64453125 47.68359375 -19.64453125 47.68359375 -20.64453125 46.68359375 C-20.74326941 44.68559803 -20.77424924 42.68402217 -20.76953125 40.68359375 C-20.77210938 39.59046875 -20.7746875 38.49734375 -20.77734375 37.37109375 C-20.64453125 34.68359375 -20.64453125 34.68359375 -19.64453125 33.68359375 C-17.13528972 33.58272163 -14.65416741 33.54387343 -12.14453125 33.55078125 C-11.39365234 33.54982452 -10.64277344 33.5488678 -9.86914062 33.54788208 C-8.27864498 33.54720037 -6.68814658 33.54905403 -5.09765625 33.55322266 C-2.6548847 33.55857108 -0.21229704 33.55327741 2.23046875 33.546875 C3.77213582 33.54753578 5.31380278 33.54881695 6.85546875 33.55078125 C7.59087891 33.54875702 8.32628906 33.54673279 9.08398438 33.54464722 C14.24051714 33.56864214 14.24051714 33.56864214 15.35546875 34.68359375 C16.60084411 47.66423698 12.91444787 57.70993286 4.76171875 67.62109375 C-1.5231369 74.49886031 -10.33853092 78.88430538 -19.64453125 79.68359375 C-28.08675775 79.76212609 -35.30709565 78.9729593 -42.64453125 74.68359375 C-43.3921875 74.27238281 -44.13984375 73.86117187 -44.91015625 73.4375 C-54.15764754 67.88585982 -61.41398613 58.68279005 -64.32421875 48.24609375 C-66.66092719 37.74691063 -66.32910343 26.79862969 -61.28515625 17.05859375 C-59.8314723 14.84060174 -58.29335333 12.75941847 -56.64453125 10.68359375 C-55.90203125 9.65234375 -55.15953125 8.62109375 -54.39453125 7.55859375 C-40.35562102 -7.11844877 -17.48673694 -11.69352768 0 0 Z " fill="#D00510" transform="translate(566.64453125,763.31640625)"/>
<path d="M0 0 C3.24548072 2.42123165 5.883464 4.70117244 8.4609375 7.8359375 C8.4609375 11.8359375 8.4609375 11.8359375 6.7109375 13.7578125 C5.9684375 14.36109375 5.2259375 14.964375 4.4609375 15.5859375 C3.7184375 16.19953125 2.9759375 16.813125 2.2109375 17.4453125 C1.6334375 17.90421875 1.0559375 18.363125 0.4609375 18.8359375 C-2.67524423 17.44438667 -4.7789307 15.78449366 -7.2265625 13.3984375 C-12.78287604 8.45032897 -18.91267612 6.2060184 -26.4375 6.55078125 C-35.21274 7.74147367 -42.32708575 10.75585893 -47.8515625 17.7734375 C-52.83549958 26.81836034 -53.541105 36.04832605 -50.7421875 45.93359375 C-47.9142729 52.75547864 -42.55603437 58.28104457 -35.734375 61.18359375 C-27.95785772 63.49440938 -20.84919335 63.49100293 -13.5390625 59.8359375 C-7.85602794 56.19021722 -5.80877613 51.96416429 -3.5390625 45.8359375 C-4.82683594 45.84753906 -6.11460937 45.85914063 -7.44140625 45.87109375 C-9.11979022 45.8804702 -10.79817576 45.88957055 -12.4765625 45.8984375 C-13.75176758 45.91100586 -13.75176758 45.91100586 -15.05273438 45.92382812 C-15.86162109 45.92705078 -16.67050781 45.93027344 -17.50390625 45.93359375 C-18.252771 45.93883057 -19.00163574 45.94406738 -19.77319336 45.94946289 C-21.5390625 45.8359375 -21.5390625 45.8359375 -22.5390625 44.8359375 C-22.5390625 40.5459375 -22.5390625 36.2559375 -22.5390625 31.8359375 C-10.9890625 31.8359375 0.5609375 31.8359375 12.4609375 31.8359375 C12.4609375 46.5326367 11.87133155 54.96373466 2.4609375 65.8359375 C-5.73726124 73.79077598 -14.88415469 77.39600353 -26.23828125 77.9296875 C-39.24635951 77.56022729 -49.63071945 71.66441987 -58.4921875 62.41015625 C-67.32465664 51.3021464 -68.63413957 39.51522425 -67.5390625 25.8359375 C-65.25990839 14.19302974 -57.06595694 4.57375653 -47.5390625 -2.1640625 C-31.26882361 -10.51680934 -15.30140978 -10.3909287 0 0 Z " fill="#D00510" transform="translate(976.5390625,765.1640625)"/>
<path d="M0 0 C0.99 0 1.98 0 3 0 C10.62120085 16.40002615 18.11154656 32.85194553 25.4781189 49.36811829 C27.23009311 53.29112149 28.99773775 57.20672635 30.77568054 61.11802673 C31.99689493 63.80494544 33.21412241 66.49366229 34.43118286 69.1824646 C35.01488759 70.46902429 35.60053594 71.75470409 36.1882019 73.03945923 C37.00160596 74.81827902 37.80762339 76.60047095 38.61328125 78.3828125 C39.30611206 79.90479248 39.30611206 79.90479248 40.01293945 81.45751953 C41 84 41 84 41 87 C36.05 87 31.1 87 26 87 C22.64708425 80.51283691 20.01747451 75.0611608 18 68 C1.665 68.495 1.665 68.495 -15 69 C-17.64 74.94 -20.28 80.88 -23 87 C-27.95 87 -32.9 87 -38 87 C-39 84 -39 84 -38.15820312 81.70458984 C-37.70380859 80.79918457 -37.24941406 79.8937793 -36.78125 78.9609375 C-36.26868652 77.92235596 -35.75612305 76.88377441 -35.22802734 75.8137207 C-34.37265381 74.11155396 -34.37265381 74.11155396 -33.5 72.375 C-32.28775609 69.92114768 -31.08464782 67.46287051 -29.8828125 65.00390625 C-29.56680084 64.35888657 -29.25078918 63.71386688 -28.92520142 63.04930115 C-25.2601868 55.53804252 -21.81388653 47.92925582 -18.375 40.3125 C-17.74410578 38.91721529 -17.11316521 37.52195153 -16.48217773 36.12670898 C-15.55206301 34.06939788 -14.62221237 32.01196939 -13.69316101 29.95417786 C-10.67459376 23.27046436 -7.62216188 16.6025056 -4.5625 9.9375 C-4.09569824 8.92018799 -3.62889648 7.90287598 -3.14794922 6.85473633 C-2.09910921 4.56960491 -1.04983991 2.28467217 0 0 Z M1 31 C-2.3 38.59 -5.6 46.18 -9 54 C-2.4 54 4.2 54 11 54 C9.08659036 48.25977108 7.21389186 42.93401914 4.8125 37.4375 C4.53986328 36.81037109 4.26722656 36.18324219 3.98632812 35.53710938 C3.32762687 34.0232521 2.66432675 32.5113971 2 31 C1.67 31 1.34 31 1 31 Z " fill="#CF0510" transform="translate(1028,754)"/>
<path d="M0 0 C2.83685566 2.46981891 4.15391751 5.06956007 5.71484375 8.46875 C6.22990479 9.5832251 6.74496582 10.6977002 7.27563477 11.84594727 C7.82986402 13.06384011 8.3838115 14.28186122 8.9375 15.5 C9.517771 16.76441452 10.09842478 18.02865344 10.67944336 19.29272461 C15.53627395 29.88454888 20.28500026 40.52498068 24.984375 51.1875 C26.82801995 55.3680565 28.69083601 59.5388969 30.57923889 63.69935608 C31.71977188 66.21256735 32.85472838 68.72828035 33.98947144 71.24411011 C34.79829727 73.03112065 35.61502325 74.81454872 36.43188477 76.59790039 C36.91455811 77.67031982 37.39723145 78.74273926 37.89453125 79.84765625 C38.32612549 80.79648682 38.75771973 81.74531738 39.20239258 82.72290039 C39.59720825 83.8500647 39.59720825 83.8500647 40 85 C39.67 85.66 39.34 86.32 39 87 C36.73078464 87.13489391 34.4592933 87.23193995 32.1875 87.3125 C30.92292969 87.37050781 29.65835938 87.42851563 28.35546875 87.48828125 C25 87 25 87 23.21875 84.83203125 C22.8165625 83.89746094 22.414375 82.96289062 22 82 C21.54238281 81.07960938 21.08476563 80.15921875 20.61328125 79.2109375 C20.18402344 78.27507812 19.75476563 77.33921875 19.3125 76.375 C18.87550781 75.43398438 18.43851563 74.49296875 17.98828125 73.5234375 C17 71 17 71 17 68 C5.78 68 -5.44 68 -17 68 C-17.99 70.97 -18.98 73.94 -20 77 C-21.54337179 80.41280804 -23.267494 83.67546147 -25 87 C-29.62 87 -34.24 87 -39 87 C-40.29311811 83.12064568 -39.44737629 82.21710813 -37.703125 78.5859375 C-37.16558594 77.4520459 -36.62804687 76.3181543 -36.07421875 75.14990234 C-35.46618138 73.89158439 -34.8581073 72.63328416 -34.25 71.375 C-33.29789128 69.37714179 -32.34933935 67.3776168 -31.40075684 65.37808228 C-30.71645117 63.9364301 -30.03094893 62.49534539 -29.34436035 61.05477905 C-26.53732447 55.15954395 -23.78341726 49.24075071 -21.046875 43.3125 C-20.41897064 41.95265488 -20.41897064 41.95265488 -19.77838135 40.56533813 C-18.10988655 36.9503464 -16.44235719 33.33491114 -14.77600098 29.71893311 C-1.9900554 1.9900554 -1.9900554 1.9900554 0 0 Z M0 32 C-1.29673602 34.53919006 -2.58747837 37.08114238 -3.875 39.625 C-4.23980469 40.33785156 -4.60460937 41.05070313 -4.98046875 41.78515625 C-5.33496094 42.48769531 -5.68945312 43.19023438 -6.0546875 43.9140625 C-6.37937012 44.5529541 -6.70405273 45.1918457 -7.03857422 45.85009766 C-8.21854414 48.48869976 -9.08596772 51.25790316 -10 54 C-3.4 54 3.2 54 10 54 C8.09788915 48.29366744 6.34492182 43.28372385 3.8125 37.9375 C3.28269531 36.81214844 2.75289062 35.68679688 2.20703125 34.52734375 C1.80871094 33.69332031 1.41039062 32.85929688 1 32 C0.67 32 0.34 32 0 32 Z " fill="#CF0510" transform="translate(622,754)"/>
<path d="M0 0 C7.92 0 15.84 0 24 0 C24 35.31 24 70.62 24 107 C16.08 107 8.16 107 0 107 C0 71.69 0 36.38 0 0 Z " fill="#000000" transform="translate(1042,607)"/>
<path d="M0 0 C15.18 0 30.36 0 46 0 C47.24377393 2.48754786 47.13306235 4.22655301 47.125 7 C47.12886719 8.3303125 47.12886719 8.3303125 47.1328125 9.6875 C47 12 47 12 46 14 C35.77 14 25.54 14 15 14 C15 19.28 15 24.56 15 30 C17.15402344 29.98839844 19.30804687 29.97679687 21.52734375 29.96484375 C23.60571139 29.95705263 25.68407743 29.95097619 27.76245117 29.94506836 C29.21070073 29.94002899 30.65894517 29.93319747 32.10717773 29.92456055 C34.18474588 29.91247753 36.26224697 29.90676789 38.33984375 29.90234375 C39.59144287 29.89710693 40.84304199 29.89187012 42.13256836 29.88647461 C45 30 45 30 46 31 C46.09873816 32.99799572 46.12971799 34.99957158 46.125 37 C46.12886719 38.6396875 46.12886719 38.6396875 46.1328125 40.3125 C46 43 46 43 45 44 C42.78144736 44.08783542 40.56011504 44.10694609 38.33984375 44.09765625 C37.34314415 44.09553383 37.34314415 44.09553383 36.3263092 44.09336853 C34.19666101 44.08775518 32.06711661 44.07520054 29.9375 44.0625 C28.49674631 44.05748671 27.05599097 44.05292351 25.61523438 44.04882812 C22.07675042 44.03863076 18.53849187 44.0190583 15 44 C15 51.92 15 59.84 15 68 C25.23 68 35.46 68 46 68 C47.31164842 70.62329684 47.13262846 72.63698625 47.125 75.5625 C47.12886719 77.04943359 47.12886719 77.04943359 47.1328125 78.56640625 C47 81 47 81 46 82 C44.5932478 82.09804851 43.18164864 82.12798186 41.77148438 82.12939453 C40.42503845 82.13412277 40.42503845 82.13412277 39.0513916 82.13894653 C37.58735901 82.13591019 37.58735901 82.13591019 36.09375 82.1328125 C34.6011969 82.13424759 34.6011969 82.13424759 33.07849121 82.13571167 C30.97013282 82.1363936 28.86177235 82.13453844 26.75341797 82.13037109 C23.51394973 82.12502303 20.27462015 82.13031567 17.03515625 82.13671875 C14.99218719 82.13605797 12.94921822 82.13477681 10.90625 82.1328125 C9.93022827 82.13483673 8.95420654 82.13686096 7.9486084 82.13894653 C7.05097778 82.13579437 6.15334717 82.13264221 5.22851562 82.12939453 C4.43433228 82.12859894 3.64014893 82.12780334 2.82189941 82.12698364 C1 82 1 82 0 81 C-0.09504251 78.47458998 -0.12557158 75.97662874 -0.11352539 73.45092773 C-0.11367142 72.66074249 -0.11381744 71.87055725 -0.1139679 71.056427 C-0.11326857 68.43212178 -0.10547527 65.80788664 -0.09765625 63.18359375 C-0.09579214 61.36898335 -0.0943682 59.55437244 -0.09336853 57.73976135 C-0.08954279 52.9540977 -0.07971204 48.1684642 -0.06866455 43.3828125 C-0.0566573 37.64596429 -0.05204846 31.90910601 -0.04621124 26.17224884 C-0.03650031 17.4481449 -0.01734415 8.72410716 0 0 Z " fill="#C70510" transform="translate(853,759)"/>
<path d="M0 0 C2.554679 2.31631138 4.87554253 4.61293816 6.6875 7.5625 C5.47586152 11.19741543 4.57978938 11.51496215 1.3125 13.3125 C0.52101563 13.76109375 -0.27046875 14.2096875 -1.0859375 14.671875 C-3.3125 15.5625 -3.3125 15.5625 -6.3125 14.5625 C-6.84875 13.7375 -7.385 12.9125 -7.9375 12.0625 C-10.9400996 8.90186884 -12.82256646 8.74213632 -17.05078125 8.4765625 C-20.06444069 8.59107115 -22.55985391 9.36262863 -25.3125 10.5625 C-25.44845863 11.97646973 -25.54493845 13.39426684 -25.625 14.8125 C-25.68300781 15.60140625 -25.74101563 16.3903125 -25.80078125 17.203125 C-25.4935874 19.75200843 -25.4935874 19.75200843 -23.2734375 21.66015625 C-19.87682654 23.84241157 -16.365862 25.29195271 -12.625 26.75 C-4.29112227 30.21586508 3.9507408 34.8146678 7.8125 43.4375 C9.87358063 50.89594287 9.60198807 58.4978097 6.08203125 65.42578125 C2.00965576 71.66552744 -3.0656165 76.47441492 -10.3125 78.5625 C-18.70276518 80.20688839 -26.30916885 79.91533677 -33.57421875 75.046875 C-40.8174045 69.10237505 -43.73687371 62.70527886 -45.3125 53.5625 C-40.33020224 51.64623163 -35.58565333 51.0077885 -30.3125 50.5625 C-30.13074219 51.24957031 -29.94898438 51.93664062 -29.76171875 52.64453125 C-29.38466797 53.99611328 -29.38466797 53.99611328 -29 55.375 C-28.75636719 56.26832031 -28.51273438 57.16164063 -28.26171875 58.08203125 C-27.26758143 60.67987979 -26.51677482 61.89740031 -24.3125 63.5625 C-18.21331558 64.98564303 -14.74370384 64.71259823 -9.3125 61.5625 C-7.53105359 58.76223306 -6.97217881 56.42336327 -6.875 53.125 C-6.83503906 52.38378906 -6.79507813 51.64257812 -6.75390625 50.87890625 C-7.62142399 47.28143758 -9.47801213 45.88870928 -12.3125 43.5625 C-14.96582857 42.12356734 -17.71684932 40.97540117 -20.5 39.8125 C-28.38294164 36.31338312 -36.46603005 32.16536173 -40.546875 24.1328125 C-42.21632868 18.52821799 -42.05765007 12.68029494 -40.125 7.1875 C-35.86297108 1.0149064 -30.01414311 -3.90946599 -22.8125 -6.25 C-13.5149416 -6.94731688 -7.26203878 -6.18667289 0 0 Z " fill="#D20511" transform="translate(710.3125,763.4375)"/>
<path d="M0 0 C0.66 0 1.32 0 2 0 C1.67 28.05 1.34 56.1 1 85 C0.34 85 -0.32 85 -1 85 C-1.02312297 74.06503529 -1.04091485 63.13007634 -1.05181217 52.1950922 C-1.0570411 47.11808982 -1.06413892 42.04110411 -1.07543945 36.96411133 C-1.08626799 32.06879448 -1.09227676 27.17349371 -1.09487724 22.27816582 C-1.09673155 20.40617049 -1.10035228 18.53417609 -1.10573006 16.66218758 C-1.11294004 14.04959301 -1.11399096 11.43706573 -1.11352539 8.82446289 C-1.11712067 8.04259613 -1.12071594 7.26072937 -1.12442017 6.45516968 C-1.11405216 1.11405216 -1.11405216 1.11405216 0 0 Z " fill="#7B0208" transform="translate(764,754)"/>
<path d="M0 0 C0 3 0 3 -1.75 5.04296875 C-2.4925 5.75066406 -3.235 6.45835937 -4 7.1875 C-4.7425 7.90292969 -5.485 8.61835937 -6.25 9.35546875 C-7.11625 10.16951172 -7.11625 10.16951172 -8 11 C-8.66 10.67 -9.32 10.34 -10 10 C-3.84965831 2.51708428 -3.84965831 2.51708428 0 0 Z " fill="#A9030D" transform="translate(519,765)"/>
<path d="M0 0 C0 3 0 3 -1.53125 4.82421875 C-2.1809375 5.43910156 -2.830625 6.05398438 -3.5 6.6875 C-4.1496875 7.31011719 -4.799375 7.93273437 -5.46875 8.57421875 C-5.9740625 9.04472656 -6.479375 9.51523437 -7 10 C-7 7 -7 7 -4.625 4.4375 C-3.75875 3.633125 -2.8925 2.82875 -2 2 C-1.34 1.34 -0.68 0.68 0 0 Z " fill="#A3030C" transform="translate(679,761)"/>
</svg>
