<?xml version="1.0" encoding="UTF-8"?>
<svg version="1.1" xmlns="http://www.w3.org/2000/svg" width="1280" height="374">
<path d="M0 0 C0.97175171 -0.00137466 1.94350342 -0.00274933 2.94470215 -0.00416565 C4.00925125 -0.00057037 5.07380035 0.0030249 6.17060852 0.00672913 C7.29270721 0.0065831 8.41480591 0.00643707 9.57090759 0.00628662 C13.2881614 0.00698454 17.0053654 0.01477134 20.72261047 0.02259827 C23.29665093 0.02446287 25.87069173 0.02588658 28.44473267 0.02688599 C34.532647 0.03031694 40.62054072 0.03820233 46.70844728 0.04823548 C53.63945866 0.0594103 60.5704709 0.06491052 67.50148904 0.06993091 C81.75879958 0.0803853 96.01609501 0.09797622 110.27339172 0.12025452 C109.02876869 3.4628471 107.62870372 6.3244337 105.62226868 9.27015686 C104.82330925 10.45097084 104.82330925 10.45097084 104.00820923 11.65563965 C103.43185226 12.49732193 102.8554953 13.33900421 102.26167297 14.20619202 C101.6618309 15.09061478 101.06198883 15.97503754 100.44396973 16.88626099 C99.16105731 18.7771131 97.87610643 20.66658347 96.58930969 22.55479431 C93.23022067 27.48500247 89.88727746 32.42613859 86.54292297 37.36634827 C85.56592941 38.808424 85.56592941 38.808424 84.56919861 40.27963257 C80.24443121 46.66822337 75.96248946 53.079153 71.77339172 59.55775452 C64.77913131 70.35991963 57.72481269 81.12173736 50.64839172 91.87025452 C50.03243134 92.80586212 49.41647095 93.74146973 48.78184509 94.70542908 C36.24446406 113.73610704 23.52349174 132.64106309 10.74031067 151.50727844 C7.10439339 156.87695952 3.50726973 162.27005937 -0.04960632 167.69252014 C-3.38150484 172.51598773 -6.03965281 175.69382393 -11.35160828 178.30775452 C-12.79406921 179.04058655 -12.79406921 179.04058655 -14.26567078 179.78822327 C-22.28983311 182.87652954 -30.25072402 183.41024728 -38.77592468 183.3473053 C-40.35819351 183.34774338 -40.35819351 183.34774338 -41.97242737 183.34819031 C-45.42442845 183.34680807 -48.87620786 183.33129926 -52.32817078 183.31556702 C-54.7352639 183.31183295 -57.14235855 183.30898784 -59.54945374 183.30699158 C-65.85899616 183.29938613 -72.16844528 183.2797643 -78.47795105 183.25758362 C-84.92670937 183.23705847 -91.37548289 183.22797563 -97.82426453 183.21791077 C-110.45841872 183.19651539 -123.09250852 183.162806 -135.72660828 183.12025452 C-135.04847345 180.21055789 -134.26200764 178.10744323 -132.60942078 175.60853577 C-132.17323425 174.94233215 -131.73704773 174.27612854 -131.28764343 173.58973694 C-130.81375183 172.87793274 -130.33986023 172.16612854 -129.85160828 171.43275452 C-128.84103976 169.89379172 -127.83062728 168.35472645 -126.82035828 166.81556702 C-126.30344421 166.03213928 -125.78653015 165.24871155 -125.25395203 164.44154358 C-122.93107228 160.91118222 -120.64232158 157.35903289 -118.35160828 153.80775452 C-111.60712141 143.37895865 -104.83208547 132.97000051 -98.06059265 122.55873108 C-92.44094289 113.91794176 -86.82319282 105.27600635 -81.22660828 96.62025452 C-74.52395253 86.25383828 -67.79114182 75.90704905 -61.06059265 65.55873108 C-59.40744119 63.01684073 -57.7544994 60.47481416 -56.10160828 57.93275452 C-55.56108826 57.10171204 -55.02056824 56.27066956 -54.46366882 55.41444397 C-51.47151031 50.81206207 -48.48839622 46.20404692 -45.51542664 41.58924866 C-43.72697006 38.81786797 -41.92858439 36.05299196 -40.12992859 33.28822327 C-39.15272442 31.77855503 -38.18113426 30.26524425 -37.21391296 28.74916077 C-35.66662106 26.32393835 -34.10399937 23.90914798 -32.53910828 21.49525452 C-32.07625427 20.76097229 -31.61340027 20.02669006 -31.13652039 19.27015686 C-26.49702756 12.17446196 -20.84171692 6.53424809 -12.91410828 3.24525452 C-12.00016296 2.85595764 -11.08621765 2.46666077 -10.14457703 2.06556702 C-6.56383917 0.66566627 -3.82562413 -0.00417189 0 0 Z " fill="#0068B4" transform="translate(135.7266082763672,136.87974548339844)"/>
<path d="M0 0 C1.16198914 -0.00043808 2.32397827 -0.00087616 3.5211792 -0.00132751 C7.33582766 0.0007511 11.15002856 0.02403907 14.96459961 0.04760742 C17.61975345 0.05320667 20.27488298 0.05762291 22.93003845 0.06047058 C29.18781633 0.06976229 35.44543534 0.09433666 41.70314354 0.12451905 C48.83257741 0.15815311 55.96201922 0.1745716 63.0915128 0.18960536 C77.74590461 0.22088914 92.40017176 0.27359312 107.05444336 0.34057617 C106.28109791 1.75201593 105.50530703 3.16211593 104.72853088 4.57167053 C104.29678338 5.35706742 103.86503588 6.14246431 103.42020512 6.95166111 C101.21055804 10.81665379 98.71655209 14.47471622 96.20678711 18.14916992 C95.64560181 18.97775009 95.0844165 19.80633026 94.50622559 20.66001892 C92.67134165 23.3682304 90.83159084 26.07309882 88.99194336 28.77807617 C86.38565679 32.62169407 83.78230065 36.46729164 81.17944336 40.31323242 C80.18031166 41.7886853 80.18031166 41.7886853 79.16099548 43.29394531 C74.4290919 50.28854088 69.7312242 57.30511285 65.05444336 64.33666992 C64.41446915 65.29876877 63.77449493 66.26086761 63.11512756 67.25212097 C60.63078104 70.98880272 58.14763693 74.72626852 55.66867065 78.46652222 C53.96447874 81.03775452 52.25765251 83.60722184 50.55053711 86.17651367 C49.80084656 87.3111631 49.80084656 87.3111631 49.03601074 88.46873474 C43.64365206 96.57660417 38.90777491 102.72642699 29.05444336 105.34057617 C23.01054273 106.43621055 17.11035978 106.47567023 10.97851562 106.45410156 C9.33838249 106.4543206 9.33838249 106.4543206 7.66511536 106.45454407 C4.06700628 106.45384988 0.46894959 106.44608061 -3.12915039 106.43823242 C-5.63021313 106.43636649 -8.13127624 106.43494341 -10.63233948 106.4339447 C-16.53241553 106.43052246 -22.43247237 106.42264862 -28.33254057 106.41259521 C-35.71330823 106.40029344 -43.09407823 106.39494428 -50.47485352 106.3894043 C-63.63176402 106.37869132 -76.78865915 106.36182472 -89.94555664 106.34057617 C-88.243763 101.87039187 -85.9557742 98.0624431 -83.32055664 94.09057617 C-82.32757577 92.57547084 -81.33544152 91.05981043 -80.34399414 89.54370117 C-79.53140137 88.30330078 -79.53140137 88.30330078 -78.70239258 87.0378418 C-75.4168042 81.99348654 -72.18510546 76.91456829 -68.94555664 71.84057617 C-64.04633633 64.17590649 -59.13547493 56.51950768 -54.17919922 48.89160156 C-51.40564209 44.61658547 -48.659598 40.32488041 -45.92602539 36.02416992 C-45.20993189 34.89913661 -44.49378576 33.7741368 -43.77758789 32.64916992 C-42.38295515 30.45687838 -40.99088626 28.26295299 -39.60180664 26.06713867 C-28.78831123 9.08066983 -21.14324865 -0.21108069 0 0 Z " fill="#C8D300" transform="translate(304.945556640625,136.659423828125)"/>
<path d="M0 0 C15.32562559 -0.09368781 30.65123793 -0.16409848 45.97708607 -0.20724869 C53.0941154 -0.22782196 60.21096618 -0.25584144 67.32788086 -0.30175781 C73.53529017 -0.34178701 79.74257009 -0.36747081 85.95010489 -0.37635398 C89.23313858 -0.38154181 92.51571872 -0.39576351 95.79865456 -0.42292023 C99.47512035 -0.45211262 103.15082885 -0.45594923 106.82739258 -0.45410156 C107.90058243 -0.46848267 108.97377228 -0.48286377 110.07948303 -0.49768066 C118.67375331 -0.45118648 126.00537386 1.42282185 133.26953125 6.109375 C137.05963763 10.12179091 139.81867314 14.5512812 142.6875 19.25 C143.93301009 21.24906168 145.17910917 23.24775651 146.42578125 25.24609375 C147.03502441 26.2294873 147.64426758 27.21288086 148.27197266 28.22607422 C150.59323592 31.95229536 152.97701594 35.63537799 155.375 39.3125 C159.94860925 46.35463816 164.47742571 53.42499817 169 60.5 C173.62874397 67.74031746 178.26445191 74.9756842 182.9375 82.1875 C183.36909424 82.85394531 183.80068848 83.52039063 184.24536133 84.20703125 C185.94016537 86.82334223 187.63564842 89.43920263 189.33398438 92.05322266 C190.62050559 94.03418361 191.90424298 96.01692352 193.1875 98 C193.57478271 98.59449951 193.96206543 99.18899902 194.36108398 99.80151367 C197 103.88637766 197 103.88637766 197 105 C182.71750965 105.17785151 168.43492104 105.34332551 154.15212536 105.49477577 C147.51938665 105.5654641 140.88674001 105.64003992 134.25415039 105.72363281 C127.84812899 105.80422495 121.44206877 105.87443187 115.03585243 105.93757248 C112.59711863 105.96340845 110.15842085 105.99292674 107.71977806 106.02626419 C104.29262035 106.07247344 100.86556601 106.10534595 97.43823242 106.13525391 C96.43984848 106.1517952 95.44146454 106.16833649 94.41282654 106.18537903 C83.82967026 106.24854646 73.14983745 105.3659907 65 98 C60.5163546 92.67399353 56.91217442 86.67650663 53.1875 80.8125 C52.07013986 79.08891605 50.95029482 77.36694077 49.828125 75.64648438 C48.06028706 72.93531492 46.2942028 70.2231493 44.53573608 67.50588989 C38.28170139 57.84599186 31.84232095 48.31403269 25.38809204 38.78720093 C20.24768557 31.19893437 15.1220241 23.6006833 10 16 C9.48759766 15.24025879 8.97519531 14.48051758 8.44726562 13.69775391 C7.01433379 11.57106432 5.58469497 9.44220504 4.15625 7.3125 C3.73106079 6.68214844 3.30587158 6.05179687 2.86779785 5.40234375 C0 1.11504507 0 1.11504507 0 0 Z " fill="#E20512" transform="translate(215,0)"/>
<path d="M0 0 C7.92 0 15.84 0 24 0 C31.43617287 21.87299438 38.34388411 43.87786612 45 66 C46.50520615 63.14476332 47.63364011 60.32178415 48.63232422 57.25415039 C48.93959442 56.31539566 49.24686462 55.37664093 49.56344604 54.40943909 C49.89055573 53.39905075 50.21766541 52.38866241 50.5546875 51.34765625 C50.89750763 50.2965416 51.24032776 49.24542694 51.59353638 48.16246033 C52.31952221 45.93454969 53.04400163 43.70614769 53.76708984 41.47729492 C54.86103295 38.10554918 55.9593758 34.73526369 57.05859375 31.36523438 C60.45595719 20.93462555 63.82408366 10.50047731 67 0 C74.92 0 82.84 0 91 0 C93.25004576 9.00018303 93.25004576 9.00018303 93.77200317 12.54841614 C93.89255066 13.35442261 94.01309814 14.16042908 94.13729858 14.99085999 C94.26101837 15.8457048 94.38473816 16.70054962 94.51220703 17.58129883 C94.64904907 18.50423737 94.78589111 19.4271759 94.92687988 20.37808228 C95.37445095 23.4038344 95.81625906 26.4303956 96.2578125 29.45703125 C96.56854857 31.56837648 96.87957801 33.67967856 97.19088745 35.79093933 C97.84053307 40.20262991 98.4874712 44.61470601 99.13232422 49.02709961 C99.95978286 54.688272 100.79272037 60.34862121 101.62750435 66.00871754 C102.26917843 70.36208648 102.90862762 74.7157798 103.54732895 79.0695858 C103.85380344 81.15771036 104.16082118 83.24575525 104.4683876 85.33371925 C104.89662023 88.24405841 105.32201582 91.15479786 105.74658203 94.06567383 C105.93823441 95.36312279 105.93823441 95.36312279 106.13375854 96.68678284 C106.58805498 99.81764575 107 102.83166644 107 106 C99.74 106 92.48 106 85 106 C78.34331493 53.32817156 78.34331493 53.32817156 76 31 C75.74637695 31.89146729 75.49275391 32.78293457 75.23144531 33.70141602 C71.24111954 47.56448299 66.79758709 61.2816089 62.37084961 75.01019287 C61.53329547 77.61021715 60.69855437 80.21114113 59.86379623 82.81206417 C58.86396229 85.92601852 57.86158882 89.03915469 56.859375 92.15234375 C56.3000528 93.89426247 56.3000528 93.89426247 55.72943115 95.67137146 C55.38527161 96.73751175 55.04111206 97.80365204 54.68652344 98.90209961 C54.38405701 99.84121689 54.08159058 100.78033417 53.7699585 101.74790955 C53 104 53 104 52 106 C47.71 106 43.42 106 39 106 C32.69443263 87.40712871 26.52681901 68.78419878 20.8125 50 C20.57493988 49.21983521 20.33737976 48.43967041 20.09262085 47.63586426 C15.94547344 33.99407922 15.94547344 33.99407922 15 30 C14.89977539 30.94278809 14.79955078 31.88557617 14.69628906 32.85693359 C12.80921061 50.57985946 10.88403355 68.29758304 8.8125 86 C8.68603088 87.08942902 8.68603088 87.08942902 8.55700684 88.2008667 C8.31762243 90.25918589 8.0753466 92.31714222 7.83203125 94.375 C7.69514893 95.53773438 7.5582666 96.70046875 7.41723633 97.8984375 C7.0517257 100.61549251 6.53765824 103.3117088 6 106 C-1.26 106 -8.52 106 -16 106 C-12.47710538 80.5250683 -8.90495259 55.05801299 -5.15722656 29.61505127 C-4.80221844 27.20372377 -4.44837847 24.79222399 -4.09570312 22.3805542 C-3.60124853 19.00316108 -3.10215898 15.62648752 -2.6015625 12.25 C-2.45393463 11.23773346 -2.30630676 10.22546692 -2.15420532 9.18252563 C-2.01646698 8.26119843 -1.87872864 7.33987122 -1.73681641 6.390625 C-1.61803131 5.58657227 -1.49924622 4.78251953 -1.37686157 3.95410156 C-1 2 -1 2 0 0 Z " fill="#000000" transform="translate(904,137)"/>
<path d="M0 0 C8.25 0 16.5 0 25 0 C33.58531022 9.28330292 33.58531022 9.28330292 35.88671875 13.58203125 C38.87377423 18.88867022 42.31906581 23.6585068 46 28.5 C47.16007486 30.07105697 48.31762177 31.64398366 49.47265625 33.21875 C51.88739911 36.49691363 54.31328198 39.7664759 56.74609375 43.03125 C71.29788495 62.59576991 71.29788495 62.59576991 75 70 C75.33 46.9 75.66 23.8 76 0 C83.26 0 90.52 0 98 0 C98 34.98 98 69.96 98 106 C90.41 106 82.82 106 75 106 C66.40819375 96.50011667 66.40819375 96.50011667 64.05078125 92.21875 C61.34739008 87.51630603 58.32911761 83.27325295 55 79 C54.02322976 77.70654574 53.04930628 76.41093719 52.078125 75.11328125 C51.58376953 74.45408691 51.08941406 73.79489258 50.58007812 73.11572266 C45.86448258 66.80154605 41.20421848 60.44638668 36.54199219 54.09277344 C35.19583892 52.26579025 33.83977281 50.44707684 32.4765625 48.6328125 C31.78304688 47.70210937 31.08953125 46.77140625 30.375 45.8125 C29.80523438 45.05582031 29.23546875 44.29914063 28.6484375 43.51953125 C26.46939764 40.18900824 24.77992125 36.55984249 23 33 C22.67 57.09 22.34 81.18 22 106 C14.74 106 7.48 106 0 106 C0 71.02 0 36.04 0 0 Z M76 73 C77 75 77 75 77 75 Z " fill="#000000" transform="translate(1069,137)"/>
<path d="M0 0 C54.20382762 0 54.20382762 0 63.4140625 9.07421875 C69.40536546 16.34937235 70.80167507 24.78073669 70 34 C68.43567788 42.55074381 64.82989525 48.9679996 58 54.375 C55.04348062 55.976448 52.19418117 56.97963657 49 58 C52.75114216 65.89946409 56.94005084 73.36538291 61.4765625 80.828125 C64.39040374 85.62601619 67.23420248 90.4637938 70.0625 95.3125 C70.55194092 96.14338135 71.04138184 96.9742627 71.5456543 97.83032227 C72.22108276 98.99132446 72.22108276 98.99132446 72.91015625 100.17578125 C73.31371338 100.86583252 73.71727051 101.55588379 74.13305664 102.2668457 C75 104 75 104 75 106 C66.42 106 57.84 106 49 106 C40.52283148 91.07281195 32.18553125 76.08899134 24 61 C23.67 75.85 23.34 90.7 23 106 C15.41 106 7.82 106 0 106 C0 71.02 0 36.04 0 0 Z M23 18 C23 26.58 23 35.16 23 44 C34.01720935 44.71025205 34.01720935 44.71025205 44 41 C46.87391838 37.94066753 47.26194353 35.12777207 47.5 31.0625 C47.38544352 27.56852722 47.00836976 25.30090804 44.875 22.5 C38.05504729 16.56960634 32.1587298 18 23 18 Z " fill="#000000" transform="translate(639,137)"/>
<path d="M0 0 C1.084021 0.00523682 2.16804199 0.01047363 3.28491211 0.01586914 C4.45473633 0.0190918 5.62456055 0.02231445 6.82983398 0.02563477 C8.0615332 0.03401367 9.29323242 0.04239258 10.56225586 0.05102539 C12.41560547 0.05779297 12.41560547 0.05779297 14.30639648 0.06469727 C17.37089703 0.07652931 20.43530307 0.09301366 23.49975586 0.11352539 C27.14368664 8.01169247 30.21204917 16.10195833 33.26147461 24.24243164 C33.81689267 25.71915724 34.37254645 27.1957942 34.92842102 28.67234802 C36.38880266 32.55346103 37.84595961 36.4357769 39.3024292 40.31835938 C40.7535968 44.18506988 42.20784006 48.05062311 43.66186523 51.91625977 C45.35938332 56.4292866 47.05592262 60.94266936 48.74752808 65.45791626 C51.25849758 72.15907795 53.7782457 78.85616655 56.33813477 85.53881836 C56.97607719 87.2125779 56.97607719 87.2125779 57.62690735 88.92015076 C58.40501184 90.95971022 59.1881748 92.99735033 59.97746277 95.03260803 C60.4831353 96.36224831 60.4831353 96.36224831 60.99902344 97.71875 C61.29134354 98.47772079 61.58366364 99.23669159 61.88484192 100.0186615 C62.49975586 102.11352539 62.49975586 102.11352539 62.49975586 106.11352539 C54.24975586 106.11352539 45.99975586 106.11352539 37.49975586 106.11352539 C29.49975586 87.08649836 29.49975586 87.08649836 29.49975586 83.11352539 C16.62975586 83.44352539 3.75975586 83.77352539 -9.50024414 84.11352539 C-11.81024414 91.37352539 -14.12024414 98.63352539 -16.50024414 106.11352539 C-24.75024414 106.11352539 -33.00024414 106.11352539 -41.50024414 106.11352539 C-38.1255845 94.86465991 -38.1255845 94.86465991 -36.56176758 90.671875 C-36.03334511 89.24775299 -36.03334511 89.24775299 -35.49424744 87.79486084 C-35.1198201 86.79529358 -34.74539276 85.79572632 -34.35961914 84.76586914 C-33.76033348 83.15376556 -33.76033348 83.15376556 -33.14894104 81.50909424 C-31.85215777 78.02202851 -30.55121707 74.53652992 -29.25024414 71.05102539 C-27.44530199 66.2026455 -25.64254101 61.35345608 -23.84008789 56.50415039 C-23.38937424 55.2923259 -22.93866058 54.0805014 -22.47428894 52.83195496 C-19.58427945 45.0546139 -16.71910502 37.26865368 -13.87915039 29.47290039 C-13.52817291 28.50981461 -13.17719543 27.54672882 -12.81558228 26.55445862 C-11.17558035 22.05140618 -9.53957411 17.54693633 -7.9074707 13.04101562 C-7.33039565 11.45448177 -6.75325163 9.867973 -6.17602539 8.28149414 C-5.91656631 7.56125061 -5.65710724 6.84100708 -5.38978577 6.09893799 C-3.219556 0.14618626 -3.219556 0.14618626 0 0 Z M9.49975586 20.11352539 C9.31541992 21.01586914 9.13108398 21.91821289 8.94116211 22.84790039 C5.83938865 37.25031972 1.1200682 51.14399128 -3.50024414 65.11352539 C5.40975586 65.11352539 14.31975586 65.11352539 23.49975586 65.11352539 C21.03888569 56.0571174 21.03888569 56.0571174 18.27319336 47.12524414 C17.88131836 45.92448242 17.48944336 44.7237207 17.08569336 43.48657227 C16.27184838 41.00959569 15.45672389 38.53303918 14.64038086 36.05688477 C14.05643555 34.26541016 14.05643555 34.26541016 13.46069336 32.43774414 C13.10797363 31.36613037 12.75525391 30.2945166 12.3918457 29.19042969 C11.51662376 26.17170441 10.95011184 23.22144774 10.49975586 20.11352539 C10.16975586 20.11352539 9.83975586 20.11352539 9.49975586 20.11352539 Z " fill="#000000" transform="translate(1217.500244140625,136.886474609375)"/>
<path d="M0 0 C1.084021 0.00523682 2.16804199 0.01047363 3.28491211 0.01586914 C4.45473633 0.0190918 5.62456055 0.02231445 6.82983398 0.02563477 C8.0615332 0.03401367 9.29323242 0.04239258 10.56225586 0.05102539 C12.41560547 0.05779297 12.41560547 0.05779297 14.30639648 0.06469727 C17.37089703 0.07652931 20.43530307 0.09301366 23.49975586 0.11352539 C27.48864027 8.67789487 30.71361209 17.51387938 33.99975586 26.36352539 C35.32244497 29.91617989 36.64709752 33.46809956 37.97241211 37.01977539 C38.32453262 37.96399353 38.67665314 38.90821167 39.03944397 39.88104248 C41.97185537 47.73130199 44.94875309 55.56423091 47.93334961 63.39477539 C49.31308301 67.0222101 50.69235339 70.64982059 52.0715332 74.27746582 C52.98122651 76.66610188 53.89317003 79.0538822 54.80737305 81.4407959 C56.09489715 84.80343282 57.37429176 88.1690616 58.65209961 91.53540039 C59.0419957 92.5471936 59.43189178 93.55898682 59.83360291 94.60144043 C60.18612625 95.53452026 60.5386496 96.4676001 60.90185547 97.42895508 C61.21191025 98.24096375 61.52196503 99.05297241 61.84141541 99.8895874 C62.49975586 102.11352539 62.49975586 102.11352539 62.49975586 106.11352539 C54.24975586 106.11352539 45.99975586 106.11352539 37.49975586 106.11352539 C34.43842919 98.80035613 31.44480318 91.4761437 28.49975586 84.11352539 C15.95975586 84.11352539 3.41975586 84.11352539 -9.50024414 84.11352539 C-11.81024414 91.37352539 -14.12024414 98.63352539 -16.50024414 106.11352539 C-24.75024414 106.11352539 -33.00024414 106.11352539 -41.50024414 106.11352539 C-39.53432051 99.56044662 -37.51323881 93.18426855 -35.12133789 86.79711914 C-34.79674088 85.92218811 -34.47214386 85.04725708 -34.13771057 84.14581299 C-33.0738701 81.27982887 -32.00583012 78.4154297 -30.93774414 75.55102539 C-29.41427017 71.4525638 -27.89282817 67.35334874 -26.37133789 63.25415039 C-25.97780121 62.19479782 -25.58426453 61.13544525 -25.17880249 60.04399109 C-22.23431021 52.11151745 -19.31661284 44.16947088 -16.41040039 36.22290039 C-15.99729111 35.09412979 -15.58418182 33.96535919 -15.15855408 32.80238342 C-13.5369651 28.37116111 -11.9155208 23.9398948 -10.29904175 19.50680542 C-9.18102384 16.44122926 -8.05970294 13.37687974 -6.93774414 10.31274414 C-6.60311661 9.39205139 -6.26848907 8.47135864 -5.92372131 7.52276611 C-5.61768478 6.68864197 -5.31164825 5.85451782 -4.99633789 4.99511719 C-4.73006592 4.26560349 -4.46379395 3.53608978 -4.18945312 2.7844696 C-3.11120784 0.17033114 -2.94743763 0.13383053 0 0 Z M9.49975586 20.11352539 C9.31541992 21.01586914 9.13108398 21.91821289 8.94116211 22.84790039 C5.83938865 37.25031972 1.1200682 51.14399128 -3.50024414 65.11352539 C5.40975586 65.11352539 14.31975586 65.11352539 23.49975586 65.11352539 C21.19835363 56.54150267 21.19835363 56.54150267 18.52709961 48.14086914 C18.01373047 46.6375 18.01373047 46.6375 17.48999023 45.10375977 C16.78654781 43.06390725 16.08080726 41.02484583 15.37280273 38.98657227 C13.2477964 32.74813213 11.59945643 26.61387791 10.49975586 20.11352539 C10.16975586 20.11352539 9.83975586 20.11352539 9.49975586 20.11352539 Z " fill="#000000" transform="translate(824.500244140625,136.886474609375)"/>
<path d="M0 0 C20.13 0 40.26 0 61 0 C61 6.27 61 12.54 61 19 C48.46 19 35.92 19 23 19 C23 25.93 23 32.86 23 40 C35.54 40 48.08 40 61 40 C61 46.6 61 53.2 61 60 C48.46 60 35.92 60 23 60 C23 68.58 23 77.16 23 86 C35.54 86 48.08 86 61 86 C61 92.6 61 99.2 61 106 C40.87 106 20.74 106 0 106 C0 71.02 0 36.04 0 0 Z " fill="#000000" transform="translate(558,137)"/>
<path d="M0 0 C48.24591884 0 48.24591884 0 58.19140625 9.78125 C64.86504491 17.96834883 65.71169878 27.79474792 65 38 C63.3711208 46.56359285 59.70681326 53.31378876 53 59 C42.25976198 65.19964959 36.6340342 65 23 65 C23 78.53 23 92.06 23 106 C15.41 106 7.82 106 0 106 C0 71.02 0 36.04 0 0 Z M23 17 C23 26.9 23 36.8 23 47 C30.07853925 47 34.03450656 46.57529693 39.375 41.9375 C41.97239525 37.24220859 42.68934595 32.22101468 41.55859375 26.9375 C39.98855314 22.77464948 37.70775862 20.35126157 34 18 C30.24913075 16.4996523 27.30220744 17 23 17 Z " fill="#000000" transform="translate(479,137)"/>
<path d="M0 0 C24.09 0 48.18 0 73 0 C73 6.6 73 13.2 73 20 C64.75 20 56.5 20 48 20 C48 48.38 48 76.76 48 106 C40.41 106 32.82 106 25 106 C25 77.62 25 49.24 25 20 C16.75 20 8.5 20 0 20 C0 13.4 0 6.8 0 0 Z " fill="#000000" transform="translate(717,137)"/>
<path d="M0 0 C3.57736681 1.7886834 4.51598817 2.32160508 6.8125 5.1875 C10.47811262 9.53693623 14.45772698 13.50591953 18.5 17.5 C22.86583868 21.82270629 27.10618881 26.14682672 31.06640625 30.84765625 C34.50128824 34.67113095 38.21031937 38.22908404 41.86279297 41.84326172 C45.62738043 45.58351573 49.25152507 49.38374092 52.66796875 53.44921875 C54.03259017 55.03794222 55.5190824 56.5190824 57 58 C57.33 40.84 57.66 23.68 58 6 C62.62 6 67.24 6 72 6 C72 34.05 72 62.1 72 91 C67.96491429 88.98245714 65.82461582 87.06092526 62.6875 83.875 C61.78386719 82.96492188 60.88023437 82.05484375 59.94921875 81.1171875 C57.76682769 78.85391217 55.6969986 76.51425688 53.64453125 74.1328125 C49.95708956 69.88330691 46.01496416 65.93804914 42 62 C38.13586018 58.20988585 34.32252895 54.43635174 30.8125 50.3125 C25.48450608 44.28575277 19.68811047 38.68811047 14 33 C13.67 50.49 13.34 67.98 13 86 C8.71 86 4.42 86 0 86 C0 57.62 0 29.24 0 0 Z " fill="#E30512" transform="translate(746,283)"/>
<path d="M0 0 C2.40224324 1.90393055 4.05418521 3.58087891 6 6 C5.70438683 9.24531845 4.43092177 11.02364184 2.1875 13.3125 C1.68605469 13.84488281 1.18460938 14.37726563 0.66796875 14.92578125 C-1 16 -1 16 -3.05078125 15.8125 C-6.01385524 14.577391 -7.77180981 12.28124233 -10 10 C-17.08274169 4.49120091 -23.63096717 3.43404738 -32.3203125 4.45703125 C-39.93149093 5.99923796 -46.3665866 10.31887307 -50.6875 16.75 C-55.33545417 24.64275236 -56.11484705 32.99998572 -54.0625 41.875 C-51.75833751 48.88484645 -46.87718846 54.51361349 -40.69140625 58.48046875 C-33.12692235 62.11194542 -26.44293116 62.85897033 -18.4609375 60.1328125 C-10.05825527 56.26491115 -7.81437326 51.58233985 -4 43 C-10.6 43 -17.2 43 -24 43 C-24 39.04 -24 35.08 -24 31 C-12.78 31 -1.56 31 10 31 C10 43.43723113 9.35607369 53.37350194 1.0390625 63 C-7.17656085 71.05823593 -15.9948991 74.96585701 -27.5 75.375 C-39.73630731 74.95725978 -50.98047146 70.09262972 -59.40234375 61.11328125 C-67.09448469 50.93859115 -70.22162269 39.58271374 -69 27 C-66.34290374 14.07684999 -60.51457829 4.91284817 -50 -3 C-34.22810519 -13.1822386 -14.75808603 -10.45469902 0 0 Z " fill="#E30512" transform="translate(553,296)"/>
<path d="M0 0 C4.10795235 3.11497049 7.83215023 6.59677484 11.359375 10.3515625 C10.26038798 13.64852355 9.41340113 14.39826839 6.796875 16.5390625 C6.15621094 17.06886719 5.51554688 17.59867187 4.85546875 18.14453125 C4.36175781 18.54285156 3.86804688 18.94117188 3.359375 19.3515625 C0.47049098 18.03614472 -1.6436768 16.58020365 -3.953125 14.4140625 C-10.012083 9.15098457 -16.68297453 7.14995288 -24.640625 7.3515625 C-34.09981872 9.03722147 -41.1422719 13.48518711 -46.640625 21.3515625 C-50.95786867 28.54696862 -50.65937676 37.71630499 -49.20703125 45.75 C-46.85841368 53.13136951 -41.47554054 58.65756855 -34.765625 62.2890625 C-28.35810377 65.14869754 -22.82903735 66.23254177 -16.015625 64.2265625 C-8.89502418 61.45536881 -4.52601839 58.27805034 -1.3671875 51.21875 C-0.74293022 49.61447592 -0.18499551 47.98467402 0.359375 46.3515625 C-6.240625 46.3515625 -12.840625 46.3515625 -19.640625 46.3515625 C-19.640625 42.3915625 -19.640625 38.4315625 -19.640625 34.3515625 C-8.420625 34.3515625 2.799375 34.3515625 14.359375 34.3515625 C14.359375 49.74328955 13.72165698 57.55767887 3.54296875 68.26171875 C-4.56409693 75.97571458 -14.52355971 78.77330968 -25.54296875 78.625 C-36.48204454 77.65938171 -46.16644294 73.2047264 -53.671875 65.1796875 C-63.46045733 53.15134481 -65.02933227 41.52357089 -63.640625 26.3515625 C-60.98710708 15.17822919 -53.98530902 6.07304756 -44.43359375 -0.140625 C-30.62679662 -7.59436443 -13.6101421 -8.49627214 0 0 Z " fill="#E30512" transform="translate(955.640625,292.6484375)"/>
<path d="M0 0 C32.80645161 0 32.80645161 0 41.0625 7.875 C46.14595717 14.50295253 46.72129152 20.83311864 46 29 C44.75405056 35.50159072 41.20377557 40.00875466 36 44 C34.02100322 45.04094752 32.0239472 46.04940139 30 47 C30.34144043 47.47195801 30.68288086 47.94391602 31.03466797 48.43017578 C34.44316621 53.14269579 37.84833441 57.85760462 41.25048828 62.57470703 C42.36547029 64.12037146 43.48097456 65.66565938 44.59716797 67.21044922 C46.00467948 69.15941756 47.40908709 71.1105792 48.8125 73.0625 C49.23837402 73.65111816 49.66424805 74.23973633 50.10302734 74.84619141 C53 78.88546136 53 78.88546136 53 80 C47.64500587 80.90705672 42.27492159 81.65282557 37 80 C32.6316908 76.8047103 30.02846005 71.81609771 27.33398438 67.22558594 C25.04473058 63.40625255 22.47279154 59.78334288 19.9375 56.125 C19.47174561 55.42955078 19.00599121 54.73410156 18.52612305 54.01757812 C16.29447041 50.45108379 16.29447041 50.45108379 13 48 C13 58.56 13 69.12 13 80 C8.71 80 4.42 80 0 80 C0 53.6 0 27.2 0 0 Z M13 12 C13 19.92 13 27.84 13 36 C22.83764709 36.25786394 22.83764709 36.25786394 31 32 C33.61403369 27.91182273 33.82418485 23.70962773 33 19 C30.22797995 15.27757308 27.50963519 13.10235527 23 12 C19.7 12 16.4 12 13 12 Z " fill="#E30512" transform="translate(1059,289)"/>
<path d="M0 0 C7.59 0 15.18 0 23 0 C23 34.98 23 69.96 23 106 C15.41 106 7.82 106 0 106 C0 71.02 0 36.04 0 0 Z " fill="#000000" transform="translate(1024,137)"/>
<path d="M0 0 C0.66 0 1.32 0 2 0 C2.76154602 1.69232448 3.52308933 3.38465018 4.28462219 5.07698059 C4.97923141 6.62052776 5.67388442 8.16405522 6.36857605 9.70756531 C8.34625078 14.10187412 10.32311043 18.49654687 12.29858398 22.8918457 C16.15054268 31.46004197 20.00742631 40.02582478 23.89276123 48.57894897 C25.55326005 52.23505854 27.21002027 55.89285662 28.86651611 59.55078125 C29.6616406 61.30374772 30.45862821 63.05587034 31.25750732 64.80712891 C32.37561035 67.2586317 33.48728497 69.71295642 34.59765625 72.16796875 C34.92912155 72.89022141 35.26058685 73.61247406 35.60209656 74.35661316 C37.23735443 77.98938662 38.20854287 81.04271437 39 85 C34.38 85 29.76 85 25 85 C23.85214624 82.56343315 22.70664598 80.12580719 21.5625 77.6875 C21.23701172 76.99720703 20.91152344 76.30691406 20.57617188 75.59570312 C19.24512515 72.75522197 17.99292066 69.97876197 17 67 C5.78 66.67 -5.44 66.34 -17 66 C-17.99 68.97 -18.98 71.94 -20 75 C-21.54337179 78.41280804 -23.267494 81.67546147 -25 85 C-29.62 85 -34.24 85 -39 85 C-37.62525561 80.87576682 -36.27529242 77.23614238 -34.453125 73.34375 C-33.69080566 71.70889648 -33.69080566 71.70889648 -32.91308594 70.04101562 C-32.36426758 68.87248047 -31.81544922 67.70394531 -31.25 66.5 C-30.67187893 65.26251998 -30.09408596 64.02488664 -29.51660156 62.78710938 C-27.99148935 59.52013045 -26.46263746 56.25491713 -24.93261719 52.99023438 C-22.49909147 47.79701404 -20.06936958 42.60201332 -17.64108276 37.40634155 C-17.04815587 36.13786099 -16.45499675 34.86948894 -15.86160278 33.60122681 C-11.68052659 24.6627189 -7.56584011 15.69724902 -3.57519531 6.671875 C-1.10123064 1.10123064 -1.10123064 1.10123064 0 0 Z M0 29 C-1.8363725 32.9777711 -3.66858862 36.9574426 -5.5 40.9375 C-6.02464844 42.07380859 -6.54929687 43.21011719 -7.08984375 44.38085938 C-7.58613281 45.46044922 -8.08242188 46.54003906 -8.59375 47.65234375 C-9.28500977 49.15269165 -9.28500977 49.15269165 -9.99023438 50.68334961 C-11.06659445 52.73159207 -11.06659445 52.73159207 -11 54 C-3.74 54 3.52 54 11 54 C10.23055477 50.15277385 9.51694134 47.59332263 7.93359375 44.13671875 C7.53076172 43.25048828 7.12792969 42.36425781 6.71289062 41.45117188 C6.29201172 40.53916016 5.87113281 39.62714844 5.4375 38.6875 C5.01275391 37.75615234 4.58800781 36.82480469 4.15039062 35.86523438 C3.10493657 33.5746328 2.05468244 31.28636341 1 29 C0.67 29 0.34 29 0 29 Z " fill="#E30512" transform="translate(1011,284)"/>
<path d="M0 0 C0.66 0 1.32 0 2 0 C21.12242783 42.218702 21.12242783 42.218702 29.90112305 61.8503418 C30.37461182 62.90906494 30.84810059 63.96778809 31.3359375 65.05859375 C31.77776367 66.04972168 32.21958984 67.04084961 32.67480469 68.06201172 C33.58773801 70.08600576 34.51644395 72.10293472 35.45800781 74.11376953 C35.91788086 75.09845215 36.37775391 76.08313477 36.8515625 77.09765625 C37.26486816 77.97043213 37.67817383 78.84320801 38.10400391 79.74243164 C39 82 39 82 39 85 C34.38 85 29.76 85 25 85 C22.36 79.06 19.72 73.12 17 67 C5.78 66.67 -5.44 66.34 -17 66 C-17.33 67.65 -17.66 69.3 -18 71 C-19.13871197 73.48222825 -20.30456915 75.89378543 -21.5625 78.3125 C-21.89185547 78.95767578 -22.22121094 79.60285156 -22.56054688 80.26757812 C-23.36824255 81.84785228 -24.18337613 83.42432105 -25 85 C-29.62 85 -34.24 85 -39 85 C-37.57350637 80.72051912 -36.13691779 76.9480517 -34.234375 72.90625 C-33.68096436 71.72587158 -33.12755371 70.54549316 -32.55737305 69.3293457 C-31.95495777 68.05287712 -31.35249894 66.77642909 -30.75 65.5 C-30.12441171 64.16837451 -29.49917361 62.83658446 -28.87426758 61.50463867 C-27.57259883 58.73082757 -26.26941719 55.95773438 -24.96533203 53.18505859 C-23.06115994 49.13368115 -21.16741648 45.07750253 -19.27734375 41.01953125 C-18.97727417 40.37532227 -18.67720459 39.73111328 -18.36804199 39.06738281 C-17.76981838 37.78298773 -17.17161264 36.49858433 -16.57342529 35.21417236 C-11.09488453 23.45427608 -5.57657351 11.71375494 0 0 Z M0 29 C-1.8363725 32.9777711 -3.66858862 36.9574426 -5.5 40.9375 C-6.02464844 42.07380859 -6.54929687 43.21011719 -7.08984375 44.38085938 C-7.58613281 45.46044922 -8.08242187 46.54003906 -8.59375 47.65234375 C-9.28500977 49.15269165 -9.28500977 49.15269165 -9.99023438 50.68334961 C-11.06659445 52.73159207 -11.06659445 52.73159207 -11 54 C-3.41 54 4.18 54 12 54 C10.38073789 50.20578804 8.75490335 46.41463754 7.125 42.625 C6.66480469 41.54476562 6.20460938 40.46453125 5.73046875 39.3515625 C5.28574219 38.3203125 4.84101562 37.2890625 4.3828125 36.2265625 C3.97434082 35.27346191 3.56586914 34.32036133 3.14501953 33.33837891 C2.09953479 30.88347227 2.09953479 30.88347227 0 29 Z " fill="#E30512" transform="translate(1153,284)"/>
<path d="M0 0 C3.46428168 2.77845605 4.86257329 6.67878604 6.59765625 10.63671875 C6.94453995 11.41266891 7.29142365 12.18861908 7.64881897 12.98808289 C8.79318592 15.55172624 9.92787442 18.11953222 11.0625 20.6875 C11.85527917 22.46921453 12.64874573 24.25062335 13.44287109 26.03173828 C14.68285173 28.81341702 15.92216053 31.59538008 17.15881348 34.37854004 C20.14250068 41.09162122 23.15821178 47.78962504 26.19140625 54.48046875 C27.02664804 56.32526007 27.8618537 58.17006775 28.69702148 60.01489258 C29.90765296 62.68875987 31.11918142 65.36219924 32.33377075 68.03427124 C33.45772056 70.50828835 34.57703099 72.98435426 35.6953125 75.4609375 C36.03192398 76.19865891 36.36853546 76.93638031 36.71534729 77.69645691 C39 82.77218438 39 82.77218438 39 85 C34.38 85 29.76 85 25 85 C23.84658302 82.77447742 22.70218841 80.54504031 21.5625 78.3125 C21.23701172 77.68666016 20.91152344 77.06082031 20.57617188 76.41601562 C18.74892981 72.81804413 17.80562568 70.02812838 17 66 C5.78 66 -5.44 66 -17 66 C-17.66 67.98 -18.32 69.96 -19 72 C-20.92199101 76.37178267 -22.97051234 80.6763089 -25 85 C-29.62 85 -34.24 85 -39 85 C-38.08059091 80.40295455 -36.65212176 76.77956894 -34.640625 72.62109375 C-34.29984421 71.90476273 -33.95906342 71.1884317 -33.60795593 70.45039368 C-32.49361606 68.11035073 -31.37177798 65.77398502 -30.25 63.4375 C-29.08413724 60.99387281 -27.92029659 58.54929005 -26.75669861 56.10458374 C-25.97186376 54.45571998 -25.18643014 52.80714109 -24.40040588 51.15884399 C-20.85415993 43.71595909 -17.38860476 36.23734493 -13.9375 28.75 C-9.46792009 19.07382401 -4.87242419 9.47988271 0 0 Z M0 29 C-1.27869084 31.47537537 -2.54795131 33.95490966 -3.8125 36.4375 C-4.16892578 37.12521484 -4.52535156 37.81292969 -4.89257812 38.52148438 C-5.24384766 39.21435547 -5.59511719 39.90722656 -5.95703125 40.62109375 C-6.27647705 41.2442749 -6.59592285 41.86745605 -6.92504883 42.50952148 C-8.53550894 46.24068287 -9.71488728 50.14466184 -11 54 C-3.74 54 3.52 54 11 54 C8.79277659 47.18671095 8.79277659 47.18671095 6.17578125 40.62109375 C5.86962891 39.92822266 5.56347656 39.23535156 5.24804688 38.52148438 C4.93931641 37.83376953 4.63058594 37.14605469 4.3125 36.4375 C3.99216797 35.71498047 3.67183594 34.99246094 3.34179688 34.24804688 C2.56487057 32.49706371 1.78297505 30.74828676 1 29 C0.67 29 0.34 29 0 29 Z " fill="#E30512" transform="translate(604,284)"/>
<path d="M0 0 C14.85 0 29.7 0 45 0 C45 3.96 45 7.92 45 12 C34.44 12 23.88 12 13 12 C13 17.94 13 23.88 13 30 C23.23 30 33.46 30 44 30 C44 33.96 44 37.92 44 42 C33.77 42 23.54 42 13 42 C13 50.58 13 59.16 13 68 C23.56 68 34.12 68 45 68 C45 71.96 45 75.92 45 80 C30.15 80 15.3 80 0 80 C0 53.6 0 27.2 0 0 Z " fill="#E30512" transform="translate(836,289)"/>
<path d="M0 0 C3.24964373 2.52484574 5.48559253 5.17220756 7.28125 8.86328125 C7.28125 9.52328125 7.28125 10.18328125 7.28125 10.86328125 C5.85113027 11.72974792 4.41184381 12.58109954 2.96875 13.42578125 C2.16824219 13.90144531 1.36773438 14.37710937 0.54296875 14.8671875 C-1.71875 15.86328125 -1.71875 15.86328125 -4.71875 14.86328125 C-5.46125 14.03828125 -6.20375 13.21328125 -6.96875 12.36328125 C-10.35819928 9.28196372 -12.17290827 8.86328125 -16.71875 8.86328125 C-20.73394063 10.37844753 -22.32243353 11.26880655 -24.71875 14.86328125 C-25.03400218 18.33284867 -25.03400218 18.33284867 -23.71875 21.86328125 C-19.86908622 25.59756002 -14.68472343 27.30698992 -9.78125 29.23828125 C-2.49796864 32.17003248 5.0269838 36.33779066 8.28125 43.86328125 C10.44712565 50.9333182 10.28547219 59.35993185 7.24609375 66.125 C3.67065775 72.56657497 -1.01380525 75.98153273 -7.71875 78.86328125 C-15.85196114 80.84364966 -23.03065599 80.05480935 -30.71875 76.86328125 C-36.63964378 73.06497203 -40.69478436 67.41089337 -42.25 60.50390625 C-42.48891506 58.63240497 -42.61599241 56.7471704 -42.71875 54.86328125 C-38.19455359 53.63638053 -34.42651045 52.73136502 -29.71875 52.86328125 C-29.47640625 53.55035156 -29.2340625 54.23742187 -28.984375 54.9453125 C-28.64921875 55.84636719 -28.3140625 56.74742187 -27.96875 57.67578125 C-27.64390625 58.56910156 -27.3190625 59.46242188 -26.984375 60.3828125 C-25.10186816 64.07229351 -22.91397603 65.47413789 -19.03125 66.73828125 C-14.48574653 66.90980968 -10.70967024 66.0894538 -6.71875 63.86328125 C-4.35212269 59.69801718 -4.3688285 55.58722155 -4.71875 50.86328125 C-6.66739059 45.91673205 -10.14342314 44.22275474 -14.71875 41.86328125 C-17.06561517 40.86674127 -19.42040148 39.88872585 -21.78125 38.92578125 C-28.6310585 36.058249 -33.19465476 33.20160077 -37.65625 27.30078125 C-39.54064538 21.20420795 -39.96318666 14.57254415 -37.91015625 8.453125 C-34.70384409 2.69507652 -29.02650207 -1.71231175 -22.76953125 -3.78125 C-14.67439527 -5.1844069 -6.92844535 -4.58222181 0 0 Z " fill="#E30512" transform="translate(690.71875,291.13671875)"/>
</svg>
